<?xml version="1.0" encoding="UTF-8"?>
<svg version="1.1" xmlns="http://www.w3.org/2000/svg" width="1536" height="1024">
<path d="M0 0 C506.88 0 1013.76 0 1536 0 C1536 337.92 1536 675.84 1536 1024 C1029.12 1024 522.24 1024 0 1024 C0 686.08 0 348.16 0 0 Z " fill="#FEFEFE" transform="translate(0,0)"/>
<path d="M0 0 C1.19602341 -0.00960754 2.39204681 -0.01921509 3.62431335 -0.02911377 C5.58495476 -0.03548859 5.58495476 -0.03548859 7.58520508 -0.04199219 C8.94029237 -0.04774817 10.29537965 -0.05350585 11.65046692 -0.05926514 C14.50461201 -0.06979746 17.35872882 -0.07562246 20.21289062 -0.07910156 C23.83136978 -0.08452792 27.44946138 -0.10841761 31.06782055 -0.13707352 C33.8760934 -0.15593023 36.68427828 -0.16091799 39.49260902 -0.16243744 C41.46306884 -0.16685839 43.43348114 -0.1854122 45.40385437 -0.20440674 C59.86873571 -0.16931338 76.23410836 2.1860023 87.41723633 12.16113281 C89.33129883 14.38769531 89.33129883 14.38769531 91.04223633 16.78613281 C91.61200195 17.56214844 92.18176758 18.33816406 92.76879883 19.13769531 C96.80498845 26.54056443 98.00138348 34.12678919 97.97973633 42.47363281 C97.97804443 43.44929199 97.97635254 44.42495117 97.97460938 45.43017578 C97.69241882 57.48226073 94.97356208 69.06430525 92.2121582 80.75244141 C91.48098718 83.88776383 90.8050119 87.02837634 90.15161133 90.18066406 C86.22820842 108.68276061 79.16057799 124.26470708 62.97973633 135.09863281 C47.72733044 143.97786627 32.36439118 146.64556878 14.95629883 146.45410156 C13.42931541 146.44848823 11.9023265 146.44422638 10.37533569 146.4412384 C6.40678296 146.42992601 2.43857337 146.4005809 -1.52984619 146.36712646 C-5.5995215 146.3361274 -9.66925367 146.32267013 -13.73901367 146.30761719 C-21.68708569 146.27569413 -29.63488169 146.22466861 -37.58276367 146.16113281 C-37.08634248 140.50791599 -36.47699084 134.99752775 -35.23510742 129.45019531 C-34.9636792 128.22389404 -34.69225098 126.99759277 -34.41259766 125.73413086 C-34.11524774 124.4181101 -33.81780024 123.10211139 -33.52026367 121.78613281 C-33.20860913 120.38757095 -32.89750583 118.98888616 -32.58691406 117.59008789 C-31.92979856 114.6350348 -31.26933242 111.68075962 -30.60620117 108.72705078 C-29.58041636 104.15596456 -28.56492236 99.58263278 -27.55151367 95.00878906 C-27.21291532 93.4816026 -26.87429228 91.95442161 -26.53564453 90.42724609 C-26.28450394 89.29467377 -26.28450394 89.29467377 -26.02828979 88.13922119 C-21.9500136 69.75108791 -21.9500136 69.75108791 -19.95385742 61.00878906 C-17.81252067 51.58663228 -15.73709186 42.16791142 -13.98510742 32.66503906 C-13.78482941 31.57994553 -13.78482941 31.57994553 -13.58050537 30.47293091 C-12.93147406 26.93995721 -12.2943904 23.40531414 -11.67407227 19.8671875 C-8.11020613 0.05239146 -8.11020613 0.05239146 0 0 Z " fill="#111111" transform="translate(723.582763671875,421.8388671875)"/>
<path d="M0 0 C0.33 0 0.66 0 1 0 C0.54947294 7.81515279 -1.15975856 14.93086391 -3.3515625 22.42578125 C-3.85452347 24.18725494 -3.85452347 24.18725494 -4.36764526 25.98431396 C-5.26305921 29.11905189 -6.16517713 32.25176865 -7.06954956 35.38393021 C-8.73376681 41.16222993 -10.37033115 46.94845494 -12.0078125 52.734375 C-12.36131775 53.98295792 -12.714823 55.23154083 -13.07904053 56.51795959 C-16.76174082 69.59289181 -20.06676613 82.73596065 -23 96 C-22.14921875 95.98839844 -21.2984375 95.97679687 -20.421875 95.96484375 C-9.5866394 95.88415583 1.18384675 96.38507149 12 97 C11.37656047 101.72549097 10.54036325 106.32509257 9.46875 110.96875 C9.24136391 111.95950531 9.24136391 111.95950531 9.00938416 112.97027588 C8.50897987 115.14748786 8.00448899 117.32373121 7.5 119.5 C7.14305173 121.0497451 6.78636792 122.59955113 6.42993164 124.14941406 C5.48333144 128.26195245 4.53318055 132.37366141 3.58184814 136.48510742 C2.43483325 141.44279145 1.28958515 146.40088435 0.14500427 151.35913086 C-0.80283259 155.46463797 -1.75254834 159.56969047 -2.70629883 163.67382812 C-4.49448569 171.38125643 -6.25205122 179.0924179 -7.9140625 186.828125 C-16.40829552 226.24781382 -16.40829552 226.24781382 -30.51953125 236.90234375 C-36.5069137 240.66400185 -42.82978113 244 -50 244 C-50.07734375 244.80566406 -50.1546875 245.61132812 -50.234375 246.44140625 C-51.22178336 251.03084002 -53.11449392 254.77955372 -55.25 258.9375 C-55.69037598 259.80576416 -56.13075195 260.67402832 -56.58447266 261.56860352 C-61.56109901 271.26896834 -66.95135444 280.73370578 -72.3828125 290.18457031 C-73.91761389 292.85657057 -75.44476439 295.53275691 -76.96875 298.2109375 C-79.96857852 303.48004807 -82.98253935 308.74097098 -86 314 C-86.56944336 314.99338379 -87.13888672 315.98676758 -87.72558594 317.01025391 C-91.78846343 324.09325517 -95.86943781 331.16553911 -99.97039795 338.2265625 C-100.67552931 339.44111563 -101.38013403 340.65597461 -102.08428955 341.87109375 C-104.29397557 345.68401854 -106.51170974 349.49205046 -108.74084473 353.29364014 C-109.45279001 354.51028885 -110.16220237 355.72842345 -110.86901855 356.94805908 C-111.84964366 358.63874988 -112.84058047 360.32344724 -113.83203125 362.0078125 C-114.39639893 362.97348145 -114.9607666 363.93915039 -115.54223633 364.93408203 C-116.26382935 365.95671143 -116.26382935 365.95671143 -117 367 C-117.66 367 -118.32 367 -119 367 C-117.7841654 358.73171533 -116.01502634 350.7896183 -113.734375 342.75390625 C-113.41849426 341.62210434 -113.10261353 340.49030243 -112.77716064 339.32420349 C-111.77395017 335.73530181 -110.76209085 332.14890618 -109.75 328.5625 C-109.08667814 326.19351651 -108.42391366 323.82437688 -107.76171875 321.45507812 C-105.06067448 311.80525176 -102.3385504 302.16181548 -99.56895447 292.53143311 C-96.63486576 282.32664175 -93.86383642 272.08765871 -91.1875 261.8125 C-90.41269077 258.83917353 -89.63495341 255.86663496 -88.85546875 252.89453125 C-88.68258835 252.22702347 -88.50970795 251.55951569 -88.33158875 250.8717804 C-87.11276615 246.2255323 -87.11276615 246.2255323 -86 244 C-86.89460938 243.97421875 -87.78921875 243.9484375 -88.7109375 243.921875 C-98.41835918 243.4665162 -107.90823829 242.29438348 -115 235 C-122.27012479 226.39811061 -123.74344618 214.09806848 -123.4765625 203.16796875 C-122.70381446 194.47131554 -120.06284874 185.94733677 -117.89404297 177.52148438 C-116.3523891 171.44916994 -114.92424686 165.35074837 -113.5 159.25 C-113.20754395 158.00057617 -112.91508789 156.75115234 -112.61376953 155.46386719 C-110.00382805 144.21327368 -107.65975659 132.91411277 -105.35546875 121.59765625 C-103.67778983 113.37311142 -101.8510066 105.18714457 -100 97 C-89.77 97 -79.54 97 -69 97 C-70.12494809 107.12453279 -70.12494809 107.12453279 -70.9362793 110.80004883 C-71.11725159 111.63092514 -71.29822388 112.46180145 -71.48468018 113.31785583 C-71.67922791 114.18878372 -71.87377563 115.05971161 -72.07421875 115.95703125 C-72.27867615 116.89011612 -72.48313354 117.82320099 -72.69378662 118.78456116 C-73.12950342 120.7704575 -73.567306 122.7558972 -74.00704956 124.74090576 C-74.69450216 127.84410817 -75.37645838 130.9484726 -76.05688477 134.05322266 C-76.95736387 138.16071349 -77.85964989 142.26779921 -78.76367188 146.37451172 C-81.22688998 157.57217697 -83.64238209 168.77959737 -86 180 C-86.17644043 180.82532227 -86.35288086 181.65064453 -86.53466797 182.50097656 C-90.33717362 197.33722598 -90.33717362 197.33722598 -87.25 211.625 C-84.01726212 215.03733443 -82.16496004 215.90196511 -77.42578125 216.30078125 C-76.05482033 216.32026175 -74.68355533 216.32348245 -73.3125 216.3125 C-72.59787598 216.30758545 -71.88325195 216.3026709 -71.14697266 216.29760742 C-62.55463499 216.10742515 -56.17342017 214.31372518 -50 208 C-45.91998672 202.52250147 -43.750021 196.98274218 -42.015625 190.42578125 C-41.76645325 189.51895096 -41.51728149 188.61212067 -41.26055908 187.67781067 C-38.44447266 177.2548213 -36.08197615 166.72713528 -33.75 156.1875 C-33.09895739 153.27209824 -32.44618184 150.35709008 -31.79278564 147.44221497 C-31.39254803 145.65394207 -30.99394467 143.86530223 -30.59735107 142.07621765 C-29.47502455 137.02934509 -28.27523077 132.01050416 -27 127 C-28.08531006 127.03552979 -29.17062012 127.07105957 -30.28881836 127.10766602 C-34.30103594 127.23766643 -38.31343613 127.36095557 -42.32592773 127.48217773 C-44.06524323 127.53567262 -45.80450312 127.59100755 -47.54370117 127.64819336 C-50.03812666 127.72989627 -52.53267483 127.80506164 -55.02734375 127.87890625 C-55.80963852 127.90594131 -56.59193329 127.93297638 -57.39793396 127.96083069 C-59.26460933 128.01288386 -61.13263674 128.01187025 -63 128 C-63.33 127.67 -63.66 127.34 -64 127 C-63.60006164 114.60191087 -56.54470809 103.96376972 -50.9375 93.1875 C-50.60852722 92.55317047 -50.27955444 91.91884094 -49.94061279 91.26528931 C-45.29895107 82.31730725 -40.56231612 73.42785857 -35.69873047 64.59814453 C-31.60644261 57.15675969 -27.63067854 49.65712427 -23.66448975 42.14813232 C-2.95698374 2.95698374 -2.95698374 2.95698374 0 0 Z " fill="#1C86D1" transform="translate(539,325)"/>
<path d="M0 0 C3.39793972 -0.00986698 6.79531211 -0.04110875 10.19311523 -0.07226562 C12.38907528 -0.07878441 14.58503952 -0.08403927 16.78100586 -0.08789062 C18.27811348 -0.10641083 18.27811348 -0.10641083 19.8054657 -0.12530518 C30.11860411 -0.09281169 39.29386066 2.35742385 47.17553711 9.24023438 C53.83752041 16.96547686 55.87215216 26.94888819 55.66381836 36.91601562 C54.17852382 54.17471977 48.84520073 73.36095017 35.92553711 85.49023438 C31.72621114 88.92860865 25.7152918 92.24023438 20.17553711 92.24023438 C21.19396662 96.05338043 22.215417 99.86571007 23.23803711 103.67773438 C23.54878174 104.83668213 23.85952637 105.99562988 24.1796875 107.18969727 C26.71727507 116.61820804 29.342033 126.0204549 32.04101562 135.40405273 C32.46145142 136.8833728 32.46145142 136.8833728 32.89038086 138.39257812 C33.13908936 139.25874756 33.38779785 140.12491699 33.64404297 141.01733398 C34.17553711 143.24023438 34.17553711 143.24023438 34.17553711 146.24023438 C23.61553711 146.24023438 13.05553711 146.24023438 2.17553711 146.24023438 C-0.41221454 137.68627754 -2.89601278 129.21474661 -4.82446289 120.49023438 C-7.10807155 108.46911086 -7.10807155 108.46911086 -12.82446289 98.24023438 C-14.45703047 98.08308783 -16.09581627 97.98938024 -17.73461914 97.92382812 C-18.72397461 97.88193359 -19.71333008 97.84003906 -20.73266602 97.796875 C-21.77358398 97.75755859 -22.81450195 97.71824219 -23.88696289 97.67773438 C-25.45414063 97.61295898 -25.45414063 97.61295898 -27.05297852 97.546875 C-29.64333173 97.44042213 -32.23378475 97.33840678 -34.82446289 97.24023438 C-35.01588867 99.17769531 -35.01588867 99.17769531 -35.21118164 101.15429688 C-35.75572771 106.03899911 -36.63911247 110.8053928 -37.63696289 115.61523438 C-37.81074463 116.46577393 -37.98452637 117.31631348 -38.16357422 118.19262695 C-38.52804322 119.97111129 -38.89452044 121.74918519 -39.26293945 123.52685547 C-39.82846145 126.2595561 -40.385442 128.99390583 -40.94165039 131.72851562 C-41.29791629 133.46169241 -41.65466926 135.19476916 -42.01196289 136.92773438 C-42.17865479 137.74741699 -42.34534668 138.56709961 -42.51708984 139.41162109 C-43.70940391 145.12517539 -43.70940391 145.12517539 -44.82446289 146.24023438 C-47.04134283 146.39897393 -49.26301587 146.49157275 -51.48461914 146.55664062 C-52.14908554 146.57742172 -52.81355194 146.59820282 -53.49815369 146.61961365 C-55.62764833 146.68517096 -57.75726957 146.74402223 -59.88696289 146.80273438 C-61.32773137 146.84591376 -62.76848688 146.88952786 -64.20922852 146.93359375 C-67.74750329 147.0408583 -71.28592158 147.14210808 -74.82446289 147.24023438 C-74.17517266 137.24322607 -71.90128633 127.62572059 -69.76196289 117.86523438 C-69.35192904 115.97607221 -68.94226682 114.08682936 -68.53295898 112.19750977 C-67.30559341 106.54314429 -66.06670393 100.89134802 -64.82446289 95.24023438 C-64.56218903 94.04578705 -64.56218903 94.04578705 -64.2946167 92.82720947 C-61.8339035 81.62497108 -59.33473934 70.43145664 -56.82446289 59.24023438 C-56.60258301 58.25067749 -56.38070312 57.26112061 -56.15209961 56.24157715 C-53.93826151 46.36820725 -51.72330675 36.49508851 -49.50463867 26.62280273 C-49.27542725 25.60288239 -49.04621582 24.58296204 -48.81005859 23.53213501 C-48.38145692 21.62527044 -47.95275386 19.71842866 -47.52392578 17.81161499 C-46.28263567 12.28960871 -45.05017103 6.76572105 -43.82446289 1.24023438 C-29.21372464 0.40505758 -14.63448763 0.02568768 0 0 Z " fill="#111111" transform="translate(1011.824462890625,421.759765625)"/>
<path d="M0 0 C4.60813849 -0.04957858 9.21612037 -0.08580385 13.82446289 -0.10986328 C15.39089667 -0.11989726 16.95731183 -0.13352754 18.52368164 -0.15087891 C20.78015753 -0.17524225 23.03638494 -0.18650916 25.29296875 -0.1953125 C25.98899704 -0.20563507 26.68502533 -0.21595764 27.40214539 -0.22659302 C34.6963661 -0.22826176 34.6963661 -0.22826176 38 2 C39.23928369 4.71869832 40.15311133 7.1643835 41 10 C41.47560284 11.41314684 41.95406835 12.82533326 42.43530273 14.23657227 C42.93666895 15.76254891 43.4360023 17.28919456 43.93359375 18.81640625 C44.20787201 19.6545134 44.48215027 20.49262054 44.76473999 21.35612488 C45.65825873 24.09074394 46.54837035 26.8264509 47.4375 29.5625 C47.74247406 30.50009155 48.04744812 31.43768311 48.36166382 32.40368652 C52.66432408 45.64570605 56.90428903 58.90673987 61.02444458 72.20675659 C61.54626903 73.89080895 62.06974519 75.57435048 62.59494019 77.25735474 C63.32551117 79.60214361 64.04870282 81.9490754 64.76953125 84.296875 C64.98241791 84.97735397 65.19530457 85.65783295 65.41464233 86.3589325 C66.69832044 90.58128986 67.47849208 94.63444555 68 99 C68.66 99 69.32 99 70 99 C70.03520752 98.45432373 70.07041504 97.90864746 70.10668945 97.34643555 C70.69609167 90.0667621 72.15268795 83.03341955 73.72393799 75.91473389 C74.52817023 72.26757507 75.31329308 68.61631939 76.09765625 64.96484375 C76.25820496 64.21833557 76.41875366 63.47182739 76.58416748 62.70269775 C78.20662501 55.11392909 79.6754513 47.49837562 81.125 39.875 C83.54001813 27.19796787 86.20047446 14.59786491 89 2 C104.345 1.505 104.345 1.505 120 1 C117.82273361 14.49905161 115.21510025 27.69610384 111.921875 40.96289062 C109.23989216 51.83168244 106.81675544 62.74880552 104.4375 73.6875 C103.66849336 77.2136562 102.89873397 80.73964797 102.12890625 84.265625 C101.9441423 85.11214127 101.75937836 85.95865753 101.5690155 86.83082581 C98.07567019 102.82288207 94.41626994 118.74620894 90.1875 134.5625 C89.88505371 135.69486084 89.58260742 136.82722168 89.27099609 137.99389648 C88.98949707 139.02844971 88.70799805 140.06300293 88.41796875 141.12890625 C88.16813232 142.04744385 87.9182959 142.96598145 87.66088867 143.91235352 C87 146 87 146 86 147 C83.47905924 147.08847743 80.98569107 147.11527301 78.46484375 147.09765625 C77.33496788 147.09553383 77.33496788 147.09553383 76.18226624 147.09336853 C73.7673044 147.08775376 71.35243399 147.07519883 68.9375 147.0625 C67.30403779 147.0574869 65.67057414 147.05292366 64.03710938 147.04882812 C60.02470415 147.03777954 56.01236759 147.02050506 52 147 C51.75911652 146.22945786 51.51823303 145.45891571 51.27005005 144.6650238 C48.94940449 137.24259074 46.62737039 129.82059394 44.30394173 122.39903164 C43.11077045 118.58761363 41.91805626 114.77605411 40.7265625 110.96411133 C34.25898567 90.27390762 27.6948364 69.61786404 21 49 C15.64032413 70.21669016 10.49599623 91.48631743 5.70947266 112.83984375 C4.70954834 117.29373926 3.70275664 121.74607601 2.69624329 126.19848633 C1.12898561 133.13191008 -0.43524941 140.0660072 -2 147 C-12.23 147 -22.46 147 -33 147 C-32.01 143.04 -31.02 139.08 -30 135 C-29.32508189 132.04360832 -28.66099003 129.08841487 -28.01953125 126.125 C-27.8459761 125.33073608 -27.67242096 124.53647217 -27.49360657 123.71813965 C-27.12366173 122.02441678 -26.75448923 120.33052506 -26.38604736 118.63647461 C-25.39022027 114.05887037 -24.38789522 109.48268665 -23.38671875 104.90625 C-23.18401367 103.97889038 -22.98130859 103.05153076 -22.77246094 102.09606934 C-20.90610374 93.56045062 -19.02145833 85.02897732 -17.125 76.5 C-16.96905365 75.79845795 -16.8131073 75.09691589 -16.6524353 74.37411499 C-13.01942779 58.03822558 -9.34958874 41.71055515 -5.68017578 25.3828125 C-5.45096436 24.3628569 -5.22175293 23.34290131 -4.9855957 22.29203796 C-4.55700208 20.38512072 -4.12829961 18.47822794 -3.69946289 16.57136536 C-2.45816699 11.04936546 -1.22570706 5.52548183 0 0 Z " fill="#111111" transform="translate(574,422)"/>
<path d="M0 0 C9.9 0 19.8 0 30 0 C29.37715905 6.8512505 28.75282008 13.06674937 27.22265625 19.66796875 C27.05124619 20.43248856 26.87983612 21.19700836 26.70323181 21.98469543 C26.16284132 24.3871592 25.61277689 26.78728386 25.0625 29.1875 C24.69794685 30.80389656 24.3340105 32.42043236 23.97070312 34.03710938 C22.38934094 41.04548527 20.76107322 48.03431339 19 55 C25.01412447 54.88145565 31.02809367 54.75718752 37.04199219 54.62768555 C39.0865561 54.58445633 41.13115332 54.54277308 43.17578125 54.50268555 C46.11989363 54.44469112 49.06384022 54.38108156 52.0078125 54.31640625 C52.9174173 54.29969376 53.82702209 54.28298126 54.76419067 54.26576233 C59.27211243 54.16126744 63.56305003 53.89696615 68 53 C72.33416363 35.39391196 76.25573669 17.74067615 80 0 C89.9 0 99.8 0 110 0 C111.14116867 4.56467469 110.44548958 7.74254719 109.4453125 12.20703125 C109.26869583 13.02715195 109.09207916 13.84727264 108.91011047 14.69224548 C108.32398028 17.40102071 107.72470871 20.10670132 107.125 22.8125 C106.71049565 24.71310211 106.29652178 26.61381998 105.88305664 28.51464844 C102.99130394 41.75180036 99.95939478 54.95568631 96.87689209 68.14953613 C94.01083621 80.42265411 91.32007541 92.72407851 88.75 105.0625 C88.58417419 105.85832489 88.41834839 106.65414978 88.24749756 107.47409058 C88.08445129 108.25664215 87.92140503 109.03919373 87.75341797 109.84545898 C85.91221934 118.68065196 84.04745439 127.50814755 82.0625 136.3125 C81.86301758 137.20783447 81.66353516 138.10316895 81.45800781 139.02563477 C80.12220894 144.87779106 80.12220894 144.87779106 79 146 C76.78144736 146.08783542 74.56011504 146.10694609 72.33984375 146.09765625 C71.34314415 146.09553383 71.34314415 146.09553383 70.3263092 146.09336853 C68.19666101 146.08775518 66.06711661 146.07520054 63.9375 146.0625 C62.49674631 146.05748671 61.05599097 146.05292351 59.61523438 146.04882812 C56.07678898 146.03778145 52.53840461 146.02050792 49 146 C50.47898399 134.66850678 53.00589998 123.626484 55.5625 112.5 C56.1817049 109.78582253 56.79964424 107.07135985 57.41722107 104.35681152 C57.79884365 102.68147957 58.18164388 101.0064153 58.56581116 99.33166504 C58.73946701 98.57317261 58.91312286 97.81468018 59.09204102 97.03320312 C59.24367203 96.37292114 59.39530304 95.71263916 59.55152893 95.03234863 C60.06724823 92.69524934 60.53063056 90.34684722 61 88 C36.745 87.505 36.745 87.505 12 87 C11.34 90.96 10.68 94.92 10 99 C9.31079496 102.4854408 8.60702256 105.9622301 7.87109375 109.4375 C7.5792495 110.8294458 7.5792495 110.8294458 7.2815094 112.24951172 C6.87510765 114.185627 6.46754308 116.12149856 6.05883789 118.05712891 C5.43314527 121.02062551 4.81099859 123.98484984 4.18945312 126.94921875 C3.79186949 128.84118847 3.39409015 130.73311707 2.99609375 132.625 C2.81066513 133.50728271 2.62523651 134.38956543 2.43418884 135.29858398 C2.26053299 136.12044189 2.08687714 136.9422998 1.90795898 137.7890625 C1.75632797 138.50787598 1.60469696 139.22668945 1.44847107 139.96728516 C1.00291776 141.98677511 0.50157736 143.99369056 0 146 C-15.84 146.495 -15.84 146.495 -32 147 C-31.3388017 141.04921534 -30.66114399 136.04717219 -29.21484375 130.36328125 C-28.84919051 128.90360821 -28.48372026 127.44388932 -28.1184082 125.98413086 C-27.82989487 124.84426224 -27.82989487 124.84426224 -27.53555298 123.68136597 C-23.99580784 109.66056496 -20.75026099 95.59633545 -17.8125 81.4375 C-17.6470166 80.64048676 -17.4815332 79.84347351 -17.31103516 79.02230835 C-16.65861297 75.87573715 -16.00776198 72.72884863 -15.35955811 69.58140564 C-13.91931162 62.58866468 -12.43714646 55.60524578 -10.9375 48.625 C-10.70369629 47.53638672 -10.46989258 46.44777344 -10.22900391 45.32617188 C-9.4880638 41.88366577 -8.74460412 38.44171545 -8 35 C-7.85199951 34.31585022 -7.70399902 33.63170044 -7.55151367 32.92681885 C-6.5908419 28.48800285 -5.62739796 24.04979894 -4.66091919 19.61224365 C-4.34781058 18.17391803 -4.03520065 16.73548375 -3.72311401 15.29693604 C-3.28972022 13.30046204 -2.85389843 11.30451557 -2.41796875 9.30859375 C-2.04321411 7.58854126 -2.04321411 7.58854126 -1.66088867 5.83374023 C-1 3 -1 3 0 0 Z " fill="#111111" transform="translate(308,422)"/>
<path d="M0 0 C0.94690201 -0.00311188 1.89380402 -0.00622375 2.86940002 -0.00942993 C4.43366982 -0.00645401 4.43366982 -0.00645401 6.02954102 -0.00341797 C7.11432236 -0.00473724 8.1991037 -0.00605652 9.3167572 -0.00741577 C12.88901536 -0.00934736 16.46119694 -0.00296152 20.03344727 0.00439453 C21.24180237 0.00528076 22.45015747 0.00616699 23.69512939 0.00708008 C46.33928733 0.02659605 68.96311786 0.43651521 91.59594727 1.12939453 C91.13342284 3.65067287 90.66817932 6.17140042 90.20141602 8.69189453 C90.07246948 9.39636719 89.94352295 10.10083984 89.81066895 10.82666016 C88.6645994 16.99589033 87.21492795 23.06682855 85.59594727 29.12939453 C78.11737992 30.13699638 70.78823519 30.25947106 63.24829102 30.22705078 C61.99585098 30.22563583 60.74341095 30.22422089 59.45301819 30.22276306 C56.15363355 30.2181404 52.85429951 30.20918528 49.55493164 30.19805908 C46.17603163 30.18775507 42.79712415 30.18324635 39.41821289 30.17822266 C32.81077153 30.16723778 26.20336353 30.15053297 19.59594727 30.12939453 C19.48637695 30.88220703 19.37680664 31.63501953 19.26391602 32.41064453 C17.92511378 41.37953103 16.27048495 50.1985269 14.59594727 59.12939453 C33.07594727 59.12939453 51.55594727 59.12939453 70.59594727 59.12939453 C72.07062597 62.07875195 71.13246053 64.00656293 70.41625977 67.19580078 C70.1468457 68.40300781 69.87743164 69.61021484 69.59985352 70.85400391 C69.30981445 72.12050781 69.01977539 73.38701172 68.72094727 74.69189453 C68.29749023 76.59745117 68.29749023 76.59745117 67.86547852 78.54150391 C65.73411367 87.99122812 65.73411367 87.99122812 64.59594727 89.12939453 C62.81691369 89.25262211 61.03308524 89.30728472 59.25 89.3347168 C58.10889267 89.35466202 56.96778534 89.37460724 55.792099 89.39515686 C54.55045486 89.41186935 53.30881073 89.42858185 52.02954102 89.44580078 C50.7657814 89.46658188 49.50202179 89.48736298 48.19996643 89.5087738 C44.83476093 89.56323167 41.46954554 89.61343733 38.10424805 89.66162109 C34.67238826 89.71179212 31.24061896 89.76750108 27.80883789 89.82275391 C21.07127966 89.93009644 14.33365391 90.03183778 7.59594727 90.12939453 C7.38446045 91.08193115 7.38446045 91.08193115 7.16870117 92.05371094 C6.52269116 94.95467152 5.87186245 97.85453081 5.22094727 100.75439453 C4.88836914 102.25292969 4.88836914 102.25292969 4.54907227 103.78173828 C4.32993164 104.75498047 4.11079102 105.72822266 3.88500977 106.73095703 C3.58651123 108.06634521 3.58651123 108.06634521 3.28198242 109.42871094 C2.53468427 112.37056578 1.55578915 115.24986888 0.59594727 118.12939453 C22.04594727 118.12939453 43.49594727 118.12939453 65.59594727 118.12939453 C64.93594727 121.75939453 64.27594727 125.38939453 63.59594727 129.12939453 C62.60594727 135.06939453 61.61594727 141.00939453 60.59594727 147.12939453 C28.58594727 147.12939453 -3.42405273 147.12939453 -36.40405273 147.12939453 C-30.73791657 118.79871369 -30.73791657 118.79871369 -28.40405273 109.06689453 C-25.74406234 97.74629088 -23.32219159 86.38841138 -20.9909668 74.99609375 C-19.30880665 66.77981902 -17.59511731 58.57008495 -15.87261963 50.36218262 C-15.52882509 48.7239526 -15.18522506 47.08568176 -14.84173584 45.4473877 C-13.51432214 39.11834001 -12.18180085 32.79039108 -10.84457397 26.46340942 C-10.38430185 24.28275657 -9.92533723 22.10182732 -9.46768188 19.92062378 C-8.81983272 16.83450006 -8.1672009 13.74942418 -7.51342773 10.66455078 C-7.31571274 9.71778473 -7.11799774 8.77101868 -6.91429138 7.79556274 C-6.73012161 6.93127655 -6.54595184 6.06699036 -6.35620117 5.17651367 C-6.19585388 4.41617325 -6.03550659 3.65583282 -5.87030029 2.87245178 C-4.95354347 -0.55482543 -3.23668758 0.00310101 0 0 Z " fill="#111111" transform="translate(857.404052734375,421.87060546875)"/>
<path d="M0 0 C3.29780041 7.78271567 5.98763575 15.73971287 8.57421875 23.77929688 C9.25619428 25.89420943 9.94816961 28.00568622 10.640625 30.1171875 C11.07873136 31.47115811 11.51625302 32.8253181 11.953125 34.1796875 C12.34661133 35.39382324 12.74009766 36.60795898 13.14550781 37.85888672 C14 41 14 41 14 45 C14.66 45 15.32 45 16 45 C16.22945312 44.47019531 16.45890625 43.94039063 16.6953125 43.39453125 C18.42308595 40.22349794 20.62560347 37.49629937 22.875 34.6875 C23.3582373 34.07793457 23.84147461 33.46836914 24.33935547 32.84033203 C26.90681566 29.60647035 29.49145769 26.38647485 32.078125 23.16796875 C32.84213623 22.21627808 32.84213623 22.21627808 33.62158203 21.24536133 C34.57870277 20.0546335 35.53779962 18.86548942 36.49951172 17.6784668 C36.95600098 17.11168213 37.41249023 16.54489746 37.8828125 15.9609375 C38.61830322 15.07329712 38.61830322 15.07329712 39.36865234 14.16772461 C41.13102041 11.90869444 41.13102041 11.90869444 42.83837891 8.89672852 C48.10185807 0.54263603 48.10185807 0.54263603 53.41943359 -0.97753906 C57.36593672 -1.21740153 61.1916279 -1.10108721 65.125 -0.8125 C66.46985081 -0.76075001 67.8149245 -0.71448881 69.16015625 -0.67382812 C75.17488722 -0.4364836 81.0482233 0.09268808 87 1 C84.67723075 5.10304963 81.93657914 8.76366968 79 12.4375 C78.01033966 13.68613688 77.02075853 14.93483655 76.03125 16.18359375 C75.52722656 16.81765137 75.02320313 17.45170898 74.50390625 18.10498047 C72.15791653 21.06107986 69.82941413 24.03083491 67.5 27 C66.58342691 28.16674018 65.66675999 29.33340666 64.75 30.5 C64.29625 31.0775 63.8425 31.655 63.375 32.25 C62 34 60.625 35.75 59.25 37.5 C58.7960083 38.07790283 58.3420166 38.65580566 57.87426758 39.2512207 C56.96041627 40.41411232 56.04619282 41.5767116 55.1315918 42.73901367 C52.79366305 45.71111237 50.46304774 48.68850754 48.14453125 51.67578125 C47.67418457 52.27938477 47.20383789 52.88298828 46.71923828 53.50488281 C45.7907374 54.69797905 44.86584864 55.89389624 43.94482422 57.09277344 C40.66786113 61.30993702 37.09873309 65.02392163 33.0703125 68.546875 C31.1925558 72.85063854 33.4181436 76.78885208 35 81 C35.29600098 81.81017578 35.59200195 82.62035156 35.89697266 83.45507812 C36.82348391 85.93851035 37.78290432 88.40710809 38.75 90.875 C41.7688087 98.68053852 44.61612669 106.52542141 47.33911133 114.43847656 C49.89516508 121.81596084 52.67100976 129.10278499 55.51171875 136.375 C55.99898437 137.63183594 55.99898437 137.63183594 56.49609375 138.9140625 C56.78669678 139.6560791 57.0772998 140.3980957 57.37670898 141.16259766 C58 143 58 143 58 145 C41.17 145.99 41.17 145.99 24 147 C18.27803807 133.26729138 18.27803807 133.26729138 15.703125 126.42578125 C15.13154353 124.9199093 14.55992806 123.41405027 13.98828125 121.90820312 C13.10967238 119.58666149 12.23197709 117.26477812 11.35498047 114.94262695 C10.49411284 112.66531806 9.63003626 110.38924693 8.765625 108.11328125 C8.50211243 107.41237869 8.23859985 106.71147614 7.96710205 105.98933411 C6.90161233 102.74778025 6.90161233 102.74778025 5 100 C3.8829537 101.4216953 2.76591782 102.84339878 1.64892578 104.26513672 C0.65918874 105.52471185 -0.33072541 106.78414783 -1.32080078 108.04345703 C-3.79212537 111.18729326 -6.26139077 114.3326555 -8.72265625 117.484375 C-13.77909332 123.95281933 -18.8904577 130.37348985 -24.0625 136.75 C-24.62308105 137.44206543 -25.18366211 138.13413086 -25.76123047 138.84716797 C-26.28475098 139.49057129 -26.80827148 140.13397461 -27.34765625 140.796875 C-28.04387085 141.65297363 -28.04387085 141.65297363 -28.75415039 142.52636719 C-30 144 -30 144 -32 146 C-34.79684797 146.17525055 -37.4932808 146.23143189 -40.2890625 146.1953125 C-41.10748627 146.1924826 -41.92591003 146.18965271 -42.76913452 146.18673706 C-45.38790393 146.17552532 -48.00633364 146.15041929 -50.625 146.125 C-52.39843257 146.11497147 -54.17187049 146.1058454 -55.9453125 146.09765625 C-60.29700626 146.07558278 -64.6484455 146.04104644 -69 146 C-67.80666807 142.73641005 -66.57618809 140.16878315 -64.34765625 137.50390625 C-63.82413574 136.8701709 -63.30061523 136.23643555 -62.76123047 135.58349609 C-61.92035889 134.58310303 -61.92035889 134.58310303 -61.0625 133.5625 C-59.87795934 132.12968855 -58.69438155 130.69608059 -57.51171875 129.26171875 C-56.9192334 128.5454834 -56.32674805 127.82924805 -55.71630859 127.09130859 C-53.22389266 124.05431928 -50.79372214 120.97080565 -48.375 117.875 C-47.92970947 117.30595947 -47.48441895 116.73691895 -47.02563477 116.15063477 C-46.13094049 115.00666598 -45.23665089 113.86238058 -44.34277344 112.71777344 C-42.06766052 109.80728353 -39.78326302 106.90409715 -37.5 104 C-36.58461383 102.83465238 -35.66924924 101.6692878 -34.75390625 100.50390625 C-32.44589591 97.56621493 -30.13487523 94.63091517 -27.82080078 91.69799805 C-26.90478448 90.53220321 -25.99293091 89.36312445 -25.08544922 88.19067383 C-22.79275816 85.23360927 -20.45537316 82.35394392 -17.98046875 79.546875 C-17.50101807 78.98234619 -17.02156738 78.41781738 -16.52758789 77.83618164 C-15.20719326 76.28411464 -13.85835226 74.7563771 -12.5078125 73.23046875 C-10.7401557 70.27866628 -10.7401557 70.27866628 -11.39968872 68.02957153 C-11.66756195 67.31227875 -11.93543518 66.59498596 -12.21142578 65.85595703 C-12.50028656 65.05951279 -12.78914734 64.26306854 -13.08676147 63.44248962 C-13.38813019 62.63646805 -13.6894989 61.83044647 -14 61 C-14.50811775 59.54238343 -15.01306535 58.08365742 -15.51464844 56.6237793 C-16.04553796 55.10701883 -16.57714081 53.59050789 -17.109375 52.07421875 C-17.39927307 51.24654495 -17.68917114 50.41887115 -17.987854 49.56611633 C-18.90793424 46.93968783 -19.82894111 44.31358544 -20.75 41.6875 C-21.35162563 39.97072525 -21.95318853 38.25392851 -22.5546875 36.53710938 C-23.75555775 33.10975748 -24.95676608 29.68252434 -26.15820312 26.25537109 C-29.10864898 17.83802769 -32.05412974 9.41894558 -35 1 C-23.32258362 0.38855369 -11.69763005 -0.17693894 0 0 Z " fill="#1C86D1" transform="translate(1117,422)"/>
<path d="M0 0 C1.43613144 0.00297592 1.43613144 0.00297592 2.90127563 0.00601196 C3.90913116 0.00469269 4.91698669 0.00337341 5.9553833 0.00201416 C9.32930376 0.00006748 12.70314452 0.00651926 16.07705688 0.01382446 C17.22950897 0.01471069 18.38196106 0.01559692 19.56933594 0.01651001 C49.18041472 0.04295824 78.7846264 0.57605415 108.38955688 1.13882446 C107.8727885 5.4656164 107.34970433 9.73940465 106.45205688 14.00601196 C106.27932251 14.82843384 106.10658813 15.65085571 105.92861938 16.49819946 C105.66178345 17.74343384 105.66178345 17.74343384 105.38955688 19.01382446 C105.12272095 20.29386353 105.12272095 20.29386353 104.85049438 21.59976196 C103.51889239 27.88015345 103.51889239 27.88015345 102.38955688 30.13882446 C88.52955688 30.46882446 74.66955688 30.79882446 60.38955688 31.13882446 C55.71614107 53.00118203 55.71614107 53.00118203 51.20205688 74.89663696 C51.01795761 75.80651871 50.83385834 76.71640045 50.6441803 77.65385437 C50.4588826 78.56968796 50.2735849 79.48552155 50.08267212 80.42910767 C46.85216557 96.39293647 43.53356178 112.32613975 39.88955688 128.20132446 C39.71779938 128.95065247 39.54604187 129.69998047 39.36907959 130.47201538 C36.60866227 142.48150831 36.60866227 142.48150831 35.38955688 146.13882446 C25.48955688 146.13882446 15.58955688 146.13882446 5.38955688 146.13882446 C5.38955688 140.85214015 5.6479243 137.03779161 6.70986938 132.00210571 C6.84883636 131.33390305 6.98780334 130.66570038 7.13098145 129.97724915 C7.58548058 127.80047465 8.04990697 125.62595265 8.51455688 123.45132446 C8.83674201 121.91824113 9.1583489 120.38503617 9.47940063 118.85171509 C10.43945364 114.27860385 11.41252065 109.70833376 12.38955688 105.13882446 C12.65607056 103.89149536 12.92258423 102.64416626 13.19717407 101.35903931 C14.16531021 96.8366413 15.13558021 92.31472187 16.11196899 87.7940979 C18.46791119 76.86077226 20.7146145 65.90553287 22.94229126 54.94546509 C23.22028011 53.58413575 23.49827464 52.22280757 23.77627563 50.86148071 C24.01563843 49.68335815 24.25500122 48.5052356 24.50161743 47.29141235 C25.72748686 41.558442 27.07130271 35.85125922 28.38955688 30.13882446 C14.52955688 30.13882446 0.66955688 30.13882446 -13.61044312 30.13882446 C-12.29044312 24.52882446 -10.97044312 18.91882446 -9.61044312 13.13882446 C-8.7687152 8.20746552 -8.7687152 8.20746552 -8.00497437 3.26382446 C-7.16289562 -1.27172838 -3.99422677 0.01440041 0 0 Z " fill="#121212" transform="translate(188.61044311523438,420.8611755371094)"/>
<path d="M0 0 C10.23 0 20.46 0 31 0 C29.87505191 10.12453279 29.87505191 10.12453279 29.0637207 13.80004883 C28.88274841 14.63092514 28.70177612 15.46180145 28.51531982 16.31785583 C28.32077209 17.18878372 28.12622437 18.05971161 27.92578125 18.95703125 C27.72132385 19.89011612 27.51686646 20.82320099 27.30621338 21.78456116 C26.87049658 23.7704575 26.432694 25.7558972 25.99295044 27.74090576 C25.30549784 30.84410817 24.62354162 33.9484726 23.94311523 37.05322266 C23.04263613 41.16071349 22.14035011 45.26779921 21.23632812 49.37451172 C18.77311002 60.57217697 16.35761791 71.77959737 14 83 C13.82355957 83.82532227 13.64711914 84.65064453 13.46533203 85.50097656 C10.00029642 100.16309815 10.00029642 100.16309815 12.5625 114.5625 C15.57796402 117.57796402 17.99354887 118.61315153 22 120 C21.3386897 123.48216915 20.52910123 126.88348277 19.58984375 130.30078125 C19.18862305 131.76547852 19.18862305 131.76547852 18.77929688 133.25976562 C18.50150391 134.26716797 18.22371094 135.27457031 17.9375 136.3125 C17.65583984 137.33923828 17.37417969 138.36597656 17.08398438 139.42382812 C16.39085362 141.9496436 15.69614268 144.47501331 15 147 C4.11044112 147.11609338 -5.24790077 146.10916131 -14 139 C-21.59843883 131.19316517 -22.98312933 120.16767165 -23.5625 109.6875 C-23.31897077 99.71387115 -20.36715164 90.1295594 -17.89404297 80.52148438 C-16.3523891 74.44916994 -14.92424686 68.35074837 -13.5 62.25 C-13.20754395 61.00057617 -12.91508789 59.75115234 -12.61376953 58.46386719 C-10.00382805 47.21327368 -7.65975659 35.91411277 -5.35546875 24.59765625 C-3.67778983 16.37311142 -1.8510066 8.18714457 0 0 Z " fill="#111111" transform="translate(439,422)"/>
<path d="M0 0 C4.49823356 -0.10002059 8.99585192 -0.17200172 13.49487305 -0.21972656 C15.02037859 -0.23965311 16.54580968 -0.26680485 18.07104492 -0.30175781 C38.56696313 -0.7591659 38.56696313 -0.7591659 45.73413086 5.51904297 C51.03970669 11.64508788 50.47475514 17.9475751 50.17181396 25.64758301 C49.70647754 32.01880733 48.26779138 38.24860785 46.85668945 44.46582031 C46.30923273 46.8894645 45.79471626 49.31854414 45.28320312 51.75 C42.65508973 63.88787869 39.82347003 74.68684458 29 82 C18.59119178 87.89770839 8.18446004 88.28122556 -3.5625 88.125 C-5.50479492 88.11146484 -5.50479492 88.11146484 -7.48632812 88.09765625 C-10.65774771 88.07425094 -13.82877373 88.04146228 -17 88 C-16.44315038 80.68072502 -15.22119586 73.6615917 -13.63671875 66.5 C-13.4034639 65.42484131 -13.17020905 64.34968262 -12.92988586 63.24194336 C-12.18763912 59.82680135 -11.43767565 56.41340806 -10.6875 53 C-10.19546036 50.74099496 -9.7039199 48.48188113 -9.21289062 46.22265625 C-5.45534757 28.96567535 -5.45534757 28.96567535 -3.78759766 21.6796875 C-3.60356888 20.87072021 -3.4195401 20.06175293 -3.22993469 19.22827148 C-2.8978947 17.77364777 -2.56191668 16.31991295 -2.22062683 14.86743164 C-1.09609146 9.93395648 -0.47240662 5.02858978 0 0 Z " fill="#FDFEFE" transform="translate(740,452)"/>
<path d="M0 0 C4.06853343 1.35617781 5.46850875 3.60247226 8 7 C9.05558509 9.59877547 9.10728944 10.6732794 8.22265625 13.3671875 C7.64837891 14.60855469 7.64837891 14.60855469 7.0625 15.875 C5.05722197 20.21183858 5 21.79654719 5 27 C16.88 27 28.76 27 41 27 C37.5288061 46.67009876 37.5288061 46.67009876 35.4765625 55.484375 C35.24850922 56.47270325 35.02045593 57.46103149 34.78549194 58.47930908 C34.30893045 60.53640349 33.82997901 62.5929457 33.34863281 64.64892578 C32.62332214 67.75719033 31.9130015 70.86864787 31.203125 73.98046875 C23.70141822 106.42718159 23.70141822 106.42718159 12.9140625 113.3359375 C7.00371115 116.43392835 1.78507722 117.22084756 -4.875 117.3125 C-5.91720703 117.35600586 -5.91720703 117.35600586 -6.98046875 117.40039062 C-12.18012591 117.46403991 -15.06857792 116.36405942 -19 113 C-23.38201119 106.90738147 -22.58281555 100.47958511 -21.6484375 93.29785156 C-21.16290054 90.55641938 -20.59737444 87.8442355 -20 85.125 C-19.78069824 84.07965088 -19.56139648 83.03430176 -19.33544922 81.95727539 C-18.70731499 78.97139599 -18.06839413 75.98800446 -17.4276123 73.00482178 C-16.6494023 69.35625427 -15.89249975 65.70324166 -15.1328125 62.05078125 C-13.45076743 53.97557788 -11.74394425 45.90581169 -10.02734375 37.83789062 C-9.34325053 34.62135565 -8.66372773 31.4039085 -7.98828125 28.18554688 C-7.19243363 24.39388435 -6.38846792 20.60403745 -5.57806396 16.81546021 C-5.27748754 15.40370664 -4.97980943 13.99133269 -4.68511963 12.57833862 C-4.27978934 10.63779017 -3.86287226 8.69967251 -3.4453125 6.76171875 C-3.21344238 5.66819092 -2.98157227 4.57466309 -2.74267578 3.44799805 C-2.49759277 2.64015869 -2.25250977 1.83231934 -2 1 C-1.34 0.67 -0.68 0.34 0 0 Z " fill="#FDFEFE" transform="translate(471,425)"/>
<path d="M0 0 C0.61101562 0.82951172 0.61101562 0.82951172 1.234375 1.67578125 C2.47505322 3.30897492 3.76097091 4.90830174 5.078125 6.48046875 C5.79484375 7.37378906 6.5115625 8.26710938 7.25 9.1875 C7.97703125 10.06792969 8.7040625 10.94835937 9.453125 11.85546875 C12.6081958 18.26918591 9.63696988 26.14007025 7.890625 32.78515625 C7.46385806 34.45491303 7.0371006 36.12467224 6.61035156 37.79443359 C6.38802856 38.6547821 6.16570557 39.51513062 5.93664551 40.40155029 C2.81238155 52.50897568 -0.28857325 64.61250354 -2.75 76.875 C-2.93401367 77.79168457 -3.11802734 78.70836914 -3.30761719 79.65283203 C-3.48969727 80.5601709 -3.67177734 81.46750977 -3.859375 82.40234375 C-15.84924436 142.0423434 -15.84924436 142.0423434 -33.5546875 154.84765625 C-35.99155217 156.35495704 -38.44041553 157.71384064 -41 159 C-41.66386719 159.33902344 -42.32773437 159.67804688 -43.01171875 160.02734375 C-46.43851867 161.64039274 -49.21875906 162.34374918 -53 162 C-53.36609375 163.25941406 -53.7321875 164.51882813 -54.109375 165.81640625 C-56.06286196 171.65523762 -59.0801852 176.68548772 -62.25 181.9375 C-63.51784336 184.07107037 -64.78473817 186.20520462 -66.05078125 188.33984375 C-66.70385254 189.4366748 -67.35692383 190.53350586 -68.02978516 191.66357422 C-70.59094197 196.00072033 -73.08606714 200.37397212 -75.58129883 204.74926758 C-83.37231196 218.39353167 -91.57675172 231.73880618 -100 245 C-101.25803137 246.98944495 -102.51584448 248.97902793 -103.7734375 250.96875 C-106.66785667 255.54197807 -109.57875245 260.10430154 -112.50195312 264.65917969 C-113.85935248 266.78022679 -115.20437423 268.90857214 -116.546875 271.0390625 C-117.25328125 272.13992188 -117.9596875 273.24078125 -118.6875 274.375 C-119.26886719 275.29023437 -119.85023438 276.20546875 -120.44921875 277.1484375 C-120.96097656 277.75945312 -121.47273438 278.37046875 -122 279 C-122.99 279 -123.98 279 -125 279 C-127.19849725 276.2989891 -128.82991905 274.17474517 -129.3359375 270.6796875 C-128.88021406 267.04449822 -127.40657212 264.90572011 -125.4375 261.8125 C-124.60672575 260.47951206 -123.77882567 259.14473039 -122.953125 257.80859375 C-122.48712891 257.05690918 -122.02113281 256.30522461 -121.54101562 255.53076172 C-118.4977581 250.53291515 -115.60266852 245.44823692 -112.6875 240.375 C-111.71804443 238.69108154 -111.71804443 238.69108154 -110.72900391 236.97314453 C-105.7669519 228.34871406 -100.82264949 219.71417396 -95.89453125 211.0703125 C-93.94083276 207.64423277 -91.97928811 204.22281937 -90.01171875 200.8046875 C-73.29791106 175.94407332 -73.29791106 175.94407332 -62.6953125 148.8125 C-62.46585937 148.214375 -62.23640625 147.61625 -62 147 C-59.62890625 145.9453125 -59.62890625 145.9453125 -56.5625 145.125 C-45.61058454 141.74718503 -38.17341685 136.77873597 -32 127 C-27.2452611 116.93655738 -24.39920332 106.63121871 -22 95.8125 C-21.65696506 94.30896286 -21.31303458 92.8056298 -20.96826172 91.30249023 C-18.69152863 81.32313679 -16.54576891 71.31569961 -14.43847656 61.29931641 C-12.02104181 49.89518964 -9.3896871 38.54189206 -6.75 27.1875 C-6.52926819 26.23545685 -6.30853638 25.2834137 -6.08111572 24.30252075 C-5.44690892 21.56965039 -4.80994825 18.83743868 -4.171875 16.10546875 C-3.98251373 15.28994537 -3.79315247 14.474422 -3.59805298 13.63418579 C-2.5218129 9.04736021 -1.33260857 4.51919939 0 0 Z " fill="#E4E5E5" transform="translate(551,422)"/>
<path d="M0 0 C7.67158673 7.54643849 10.17787408 14.61907483 10.4309082 25.25683594 C10.47796147 43.94569478 6.35276282 59.80720124 -6.59375 73.703125 C-10.08319066 77.03395472 -13.85063255 79.56816569 -18 82 C-19.010625 82.61875 -20.02125 83.2375 -21.0625 83.875 C-22.0215625 84.431875 -22.0215625 84.431875 -23 85 C-22.41348369 93.44758561 -19.94901015 100.80345497 -17.08789062 108.73632812 C-16.76369141 109.71408203 -16.43949219 110.69183594 -16.10546875 111.69921875 C-15.79762451 112.57408936 -15.48978027 113.44895996 -15.17260742 114.3503418 C-14.92219865 118.19431123 -16.70540632 120.04044796 -19 123 C-13.87583354 123.07996944 -8.75603357 123.1002538 -3.63134766 123.06713867 C-1.89139278 123.06407139 -0.15133073 123.0768286 1.58837891 123.10620117 C11.65299224 123.555646 11.65299224 123.555646 20.79248047 120.15161133 C22.83174342 117.87549824 24.42028936 115.61083575 26 113 C26.88196936 111.88392192 27.77884052 110.77933057 28.6953125 109.69140625 C29.49710938 108.65886719 30.29890625 107.62632812 31.125 106.5625 C31.57311035 105.98830322 32.0212207 105.41410645 32.48291016 104.82250977 C35.21580733 101.31666729 37.92843077 97.79530566 40.640625 94.2734375 C41.26050293 93.47091553 41.88038086 92.66839355 42.51904297 91.84155273 C43.72973576 90.27332175 44.9372483 88.70262888 46.14111328 87.12915039 C49.21910502 83.14177215 52.33885838 79.46231557 56 76 C57.06586795 78.36658816 58.10216644 80.73987721 59.125 83.125 C59.57939453 84.12273437 59.57939453 84.12273437 60.04296875 85.140625 C61.44806718 88.47364917 62.09711768 90.40110764 61.5078125 94.03515625 C59.60160876 97.78336516 57.32139197 100.99490827 54.75 104.3125 C53.96351074 105.34322632 53.96351074 105.34322632 53.16113281 106.39477539 C47.5650719 113.67113501 41.84167996 120.89394565 35.80932617 127.81494141 C33.96549126 129.96154653 33.96549126 129.96154653 32.47174072 132.31584167 C29.62288522 136.26496761 27.43690731 138.62498771 22.63592529 139.87797546 C18.46209894 140.25816601 14.3745536 140.36012201 10.1875 140.3359375 C8.64865887 140.35218755 7.1098383 140.37050337 5.57104492 140.39077759 C2.3561996 140.4219813 -0.85641618 140.41890255 -4.07128906 140.39306641 C-8.17646783 140.36415239 -12.27300624 140.43524938 -16.37684631 140.53401756 C-19.55166725 140.59680374 -22.72442985 140.59888855 -25.89974976 140.58385086 C-27.41164697 140.58522985 -28.92367497 140.60678346 -30.43496704 140.64957809 C-41.9022712 140.93283502 -41.9022712 140.93283502 -45.44976807 137.6641922 C-47.97568331 134.5135976 -52 129.17331909 -52 125 C-49.27106533 124.82848447 -46.54196081 124.66275592 -43.8125 124.5 C-42.68811523 124.42845703 -42.68811523 124.42845703 -41.54101562 124.35546875 C-34.69221023 123.9542835 -27.8589547 123.95174941 -21 124 C-21.28198242 122.9577124 -21.56396484 121.9154248 -21.85449219 120.84155273 C-22.9208427 116.89973114 -23.98683689 112.95781326 -25.05273438 109.01586914 C-25.51032252 107.32378638 -25.96800177 105.63172827 -26.42578125 103.93969727 C-27.52989763 99.85858288 -28.63265648 95.7771134 -29.73242188 91.69482422 C-30.55493444 88.64243581 -31.38468422 85.59217217 -32.22070312 82.54345703 C-32.58989245 81.18653669 -32.95903576 79.82960382 -33.328125 78.47265625 C-33.65200195 77.2906665 -33.97587891 76.10867676 -34.30957031 74.89086914 C-35 72 -35 72 -35 69 C-33.85724609 68.5978125 -33.85724609 68.5978125 -32.69140625 68.1875 C-22.81823128 64.44037742 -14.99705381 59.40334853 -10.12109375 49.76953125 C-8.11445741 44.81237039 -6.60674181 39.70534034 -5.11328125 34.57421875 C-4.24735865 31.79415144 -3.32480212 29.55266749 -2 27 C1.31612881 17.69438743 1.09410375 9.64920417 0 0 Z " fill="#E4E5E5" transform="translate(1067,445)"/>
<path d="M0 0 C8.06427414 6.91223498 11.53352232 16.99178355 12.51171875 27.37109375 C13.20226198 41.07996192 10.75809705 53.80861049 7.8125 67.125 C7.61876801 68.01009247 7.42503601 68.89518494 7.22543335 69.80709839 C2.15320042 92.6987993 -4.75936209 112.37071245 -25.20703125 125.890625 C-40.54613913 134.88692718 -57.42793984 137.27357591 -74.92578125 137.51171875 C-75.61212332 137.52111795 -76.29846539 137.53051716 -77.0056057 137.54020119 C-80.62520877 137.58729661 -84.24467682 137.62117759 -87.86450195 137.64526367 C-90.8397992 137.66760111 -93.81285398 137.71665369 -96.78735352 137.78881836 C-100.41305883 137.87676331 -104.03674405 137.92015711 -107.66347313 137.93177223 C-109.03391039 137.94329588 -110.40431377 137.96998709 -111.77413368 138.01270103 C-122.36813252 138.32402517 -122.36813252 138.32402517 -126.3321228 135.1078186 C-128.1557047 132.81375002 -129.5974309 130.56975612 -131 128 C-131.9984718 126.33241737 -132.99806326 124.66550309 -134 123 C-133.17980881 122.99191315 -132.35961761 122.98382629 -131.51457214 122.97549438 C-123.78938922 122.89759091 -116.06439634 122.81031331 -108.33944225 122.71247292 C-104.36785063 122.6625023 -100.39628571 122.61617245 -96.42456055 122.578125 C-92.59245064 122.54128167 -88.76056367 122.49492457 -84.92864418 122.44193649 C-83.46584288 122.42338742 -82.00299379 122.40828133 -80.54012108 122.39665604 C-78.49290455 122.37980201 -76.44619917 122.35077023 -74.39916992 122.31884766 C-72.65043831 122.29886215 -72.65043831 122.29886215 -70.86637878 122.2784729 C-67.80125743 122.20813726 -67.80125743 122.20813726 -65 120 C-62.86591257 119.50839264 -60.71719262 119.07904392 -58.5625 118.6875 C-41.74298382 115.20939017 -26.98875477 107.15186757 -17.3125 92.75 C-11.16604763 83.30294672 -8.88649359 72.15804304 -6.4375 61.3125 C-6.28658905 60.64781708 -6.1356781 59.98313416 -5.98019409 59.29830933 C-5.23361793 56.00853975 -4.49547409 52.71714784 -3.76464844 49.42382812 C-3.15833566 46.7089717 -2.52881604 44.00240229 -1.8828125 41.296875 C0.97229498 28.29933807 1.32124335 14.11072634 -1 1 C-0.67 0.67 -0.34 0.34 0 0 Z " fill="#E4E5E5" transform="translate(820,447)"/>
<path d="M0 0 C5.75642083 3.91926525 5.75642083 3.91926525 6.8046875 8.5703125 C7.25112908 13.52825328 6.29063743 18.05858978 5.1875 22.875 C5.00896484 23.72835938 4.83042969 24.58171875 4.64648438 25.4609375 C3.27339001 31.72660999 3.27339001 31.72660999 1 34 C0.34 36.64 -0.32 39.28 -1 42 C-13.54 42 -26.08 42 -39 42 C-39.33 44.97 -39.66 47.94 -40 51 C-40.32079129 52.91013138 -40.66754044 54.81625601 -41.05078125 56.71484375 C-41.25268066 57.72168213 -41.45458008 58.72852051 -41.66259766 59.76586914 C-41.87706543 60.81250732 -42.0915332 61.85914551 -42.3125 62.9375 C-42.53470215 64.03634521 -42.7569043 65.13519043 -42.98583984 66.26733398 C-44.44832834 73.44944014 -46.00044095 80.60737722 -47.62255859 87.75488281 C-48.665169 92.38285012 -49.5866047 97.01945986 -50.4375 101.6875 C-53.17963465 116.69658249 -56.57828433 131.5682989 -60.25 146.375 C-60.50821533 147.42171875 -60.76643066 148.4684375 -61.0324707 149.546875 C-61.27441162 150.50851562 -61.51635254 151.47015625 -61.765625 152.4609375 C-61.97993164 153.31478027 -62.19423828 154.16862305 -62.41503906 155.04833984 C-63 157 -63 157 -64 158 C-68.30485761 158.4114449 -72.61432735 158.52800488 -76.93554688 158.62475586 C-78.38515061 158.6662978 -79.83433472 158.72755863 -81.28222656 158.80932617 C-93.23257528 159.47308237 -93.23257528 159.47308237 -97.51855469 155.90087891 C-100.55654814 151.71801056 -103 147.32431903 -103 142 C-93.43 142 -83.86 142 -74 142 C-73.34 138.04 -72.68 134.08 -72 130 C-71.49463387 127.54141221 -70.96655219 125.08727787 -70.40625 122.640625 C-70.09983614 121.2877014 -69.79352623 119.93475425 -69.48730469 118.58178711 C-69.32693726 117.87875458 -69.16656982 117.17572205 -69.00134277 116.4513855 C-64.72547614 97.67614569 -60.79586353 78.83117252 -56.89404297 59.97531128 C-56.30822978 57.14470916 -55.72150898 54.31429615 -55.13476562 51.48388672 C-54.3677994 47.78344774 -53.60714054 44.08177554 -52.84960938 40.37939453 C-52.48841704 38.62920374 -52.12709512 36.87903969 -51.765625 35.12890625 C-51.60149109 34.3192894 -51.43735718 33.50967255 -51.26824951 32.67552185 C-50.11343514 27.11343514 -50.11343514 27.11343514 -49 26 C-45.89748799 25.91125865 -42.8173188 25.88481545 -39.71484375 25.90234375 C-38.78402481 25.9037587 -37.85320587 25.90517365 -36.8941803 25.90663147 C-33.90858809 25.91224828 -30.92306971 25.9248036 -27.9375 25.9375 C-25.91862087 25.94251284 -23.89974057 25.94707612 -21.88085938 25.95117188 C-16.92054428 25.96222317 -11.96028468 25.97949905 -7 26 C-6.80664062 24.81921875 -6.61328125 23.6384375 -6.4140625 22.421875 C-6.15137724 20.86452669 -5.88833782 19.30723809 -5.625 17.75 C-5.43550781 16.58404297 -5.43550781 16.58404297 -5.2421875 15.39453125 C-4.02529131 8.27568856 -4.02529131 8.27568856 -2 5 C-1.67 5 -1.34 5 -1 5 C-0.67 3.35 -0.34 1.7 0 0 Z " fill="#E4E4E4" transform="translate(298,425)"/>
<path d="M0 0 C4.14946868 0.81170045 5.29284102 2.23852609 7.6875 5.75 C8.28949219 6.61109375 8.89148438 7.4721875 9.51171875 8.359375 C12.60770009 13.85250725 11.8582869 18.59925094 10.828125 24.62890625 C10.62126068 25.88230553 10.62126068 25.88230553 10.41021729 27.161026 C8.87703139 36.16846678 6.85575205 45.04972575 4.75 53.9375 C4.35088391 55.64436735 3.95212649 57.3513186 3.55371094 59.05834961 C0.93879526 70.21963784 -1.79375334 81.34890303 -4.61181641 92.46069336 C-6.38166313 99.45350604 -8.04982504 106.46085913 -9.625 113.5 C-13.14856207 129.20897629 -17.02006623 144.68474185 -22 160 C-26.60805521 160.12394421 -31.21513281 160.21449675 -35.82446289 160.2746582 C-37.39104114 160.29974547 -38.95750299 160.33382415 -40.52368164 160.37719727 C-42.78040309 160.43811226 -45.03557294 160.46626499 -47.29296875 160.48828125 C-47.98899704 160.51408768 -48.68502533 160.5398941 -49.40214539 160.56648254 C-53.30136827 160.56871266 -54.84276627 160.13062863 -57.8828125 157.60498047 C-59.68247179 155.39068565 -61.32946354 153.24656302 -62.8125 150.8125 C-63.23144531 150.13832031 -63.65039062 149.46414063 -64.08203125 148.76953125 C-65 147 -65 147 -65 145 C-49.655 144.505 -49.655 144.505 -34 144 C-26.80838891 124.82237042 -22.76141906 104.74949339 -18.55712891 84.75097656 C-15.75391469 71.42729254 -12.79502131 58.14541726 -9.75 44.875 C-6.32883878 29.94927411 -3.00940545 15.01534932 0 0 Z " fill="#E5E5E5" transform="translate(693,425)"/>
<path d="M0 0 C2.88277399 0.3444022 3.89668455 0.89038483 5.921875 3.0390625 C6.52515625 3.89242188 7.1284375 4.74578125 7.75 5.625 C8.36359375 6.46289062 8.9771875 7.30078125 9.609375 8.1640625 C12.82247126 14.71661274 10.38938084 22.11631594 8.9375 28.9375 C8.60685547 30.5143457 8.60685547 30.5143457 8.26953125 32.12304688 C6.66529382 39.5228124 4.69583782 46.75618364 2.5 54 C0.06430032 62.04616706 -2.04166727 70.07950706 -3.75 78.3125 C-3.93626953 79.20517578 -4.12253906 80.09785156 -4.31445312 81.01757812 C-5.19512713 85.41463505 -5.98265423 89.81613355 -6.64624023 94.25097656 C-8.4089477 106.02745666 -10.80496534 117.54357851 -13.5625 129.125 C-13.96613908 130.84099441 -14.36913551 132.55714011 -14.77148438 134.2734375 C-15.33811203 136.69001175 -15.9054957 139.10636485 -16.47816467 141.52151489 C-16.6485173 142.2403183 -16.81886993 142.9591217 -16.99438477 143.69970703 C-17.16003937 144.39807678 -17.32569397 145.09644653 -17.49636841 145.815979 C-18.21874154 148.9485825 -18.88043482 152.09397678 -19.53721619 155.24093628 C-20 157 -20 157 -21 158 C-25.14337351 158.43556176 -29.28978709 158.57084838 -33.45336914 158.6796875 C-34.84782481 158.72617474 -36.24174604 158.79418902 -37.6340332 158.88476562 C-49.1411639 159.62016828 -49.1411639 159.62016828 -53.74951172 155.60351562 C-59 148.5812624 -59 148.5812624 -59 144 C-59.66 143.34 -60.32 142.68 -61 142 C-46.15 141.505 -46.15 141.505 -31 141 C-29.7625 135.1528125 -29.7625 135.1528125 -28.5 129.1875 C-26.16431353 118.22533616 -23.70960329 107.29551928 -21.1875 96.375 C-17.09507285 78.6429784 -13.28726841 60.85315674 -9.50190735 43.05345154 C-6.44443628 28.67818132 -3.37700136 14.30420902 0 0 Z " fill="#E4E5E5" transform="translate(418,426)"/>
<path d="M0 0 C0.66 0 1.32 0 2 0 C2.495 1.485 2.495 1.485 3 3 C3.5775 3.5775 4.155 4.155 4.75 4.75 C7.59793142 7.59793142 9.70796758 10.68928651 12 14 C9.56665601 18.3487803 6.63531393 22.08931891 3.5 25.9375 C2.41744433 27.27822256 1.3354248 28.61937818 0.25390625 29.9609375 C-0.29120605 30.63608398 -0.83631836 31.31123047 -1.39794922 32.00683594 C-3.80950185 35.00712787 -6.18833315 38.03259042 -8.5625 41.0625 C-9.00956299 41.63250732 -9.45662598 42.20251465 -9.91723633 42.78979492 C-11.27863307 44.52615782 -12.63932018 46.26307526 -14 48 C-24.39227169 61.25676227 -24.39227169 61.25676227 -29 67 C-29.61746094 67.77730469 -30.23492188 68.55460937 -30.87109375 69.35546875 C-32.5502357 71.44130196 -34.25295228 73.49875684 -35.97265625 75.55078125 C-37.00288126 76.80445985 -38.03283048 78.05836513 -39.0625 79.3125 C-39.56458984 79.89966797 -40.06667969 80.48683594 -40.58398438 81.09179688 C-42.17428859 82.98068081 -42.17428859 82.98068081 -44 86 C-43.62070366 89.32180903 -42.61653883 92.31844004 -41.45288086 95.44116211 C-41.13842514 96.29072983 -40.82396942 97.14029755 -40.49998474 98.01560974 C-40.15838821 98.92698196 -39.81679169 99.83835419 -39.46484375 100.77734375 C-38.92942711 102.21999352 -38.92942711 102.21999352 -38.38319397 103.69178772 C-37.23814543 106.77501269 -36.08802482 109.85631486 -34.9375 112.9375 C-34.19039403 114.94452705 -33.44364592 116.95168735 -32.69726562 118.95898438 C-32.32856354 119.95048492 -31.95986145 120.94198547 -31.57998657 121.96353149 C-30.09467844 125.96111226 -28.61251871 129.95985786 -27.1305542 133.9586792 C-25.96718407 137.08827863 -24.79434043 140.21424023 -23.62158203 143.34033203 C-22.87364906 145.35305102 -22.12607647 147.36590398 -21.37890625 149.37890625 C-21.0235228 150.31838608 -20.66813934 151.25786591 -20.30198669 152.22581482 C-19.98391556 153.0878804 -19.66584442 153.94994598 -19.33813477 154.83813477 C-19.05462662 155.59618912 -18.77111847 156.35424347 -18.47901917 157.13526917 C-18 159 -18 159 -19 161 C-21.18969727 161.39477539 -21.18969727 161.39477539 -24.06640625 161.59765625 C-25.63165039 161.71657227 -25.63165039 161.71657227 -27.22851562 161.83789062 C-28.87883789 161.94907227 -28.87883789 161.94907227 -30.5625 162.0625 C-32.70974539 162.21854606 -34.85688404 162.37606887 -37.00390625 162.53515625 C-38.02758301 162.61008301 -39.05125977 162.68500977 -40.10595703 162.76220703 C-43.75733527 163.06222748 -47.37064361 163.50288815 -51 164 C-52.1254191 162.39612733 -53.25031972 160.79189084 -54.375 159.1875 C-55.00148438 158.29417969 -55.62796875 157.40085937 -56.2734375 156.48046875 C-58.7875912 152.86850585 -60.29476486 150.34895001 -61 146 C-49.9760632 144.99291931 -39.05994427 144.89388113 -28 145 C-28.4125 143.94425781 -28.825 142.88851562 -29.25 141.80078125 C-31.17397995 136.87001807 -33.08881165 131.93573408 -35 127 C-35.33128906 126.14486816 -35.66257812 125.28973633 -36.00390625 124.40869141 C-40.02937201 113.99575865 -43.92762905 103.55452534 -47.54663086 92.99267578 C-49.58634341 87.06470534 -51.85629463 81.28637108 -54.34765625 75.53125 C-55 73 -55 73 -54.33984375 70.90234375 C-52.85476844 68.79379659 -51.26379818 66.94557142 -49.5 65.0625 C-44.78132918 59.85920893 -40.57013155 54.31836485 -36.32519531 48.73242188 C-34.09818563 45.82106212 -31.83084787 42.9416962 -29.5625 40.0625 C-29.10512451 39.48153564 -28.64774902 38.90057129 -28.17651367 38.30200195 C-27.2482434 37.12321761 -26.31977628 35.94458825 -25.39111328 34.76611328 C-24.0082004 33.01041097 -22.62682029 31.25351585 -21.24609375 29.49609375 C-20.79218262 28.91843262 -20.33827148 28.34077148 -19.87060547 27.74560547 C-18.9613845 26.58762009 -18.05284861 25.42909644 -17.14501953 24.27001953 C-14.7592393 21.22632935 -12.35835023 18.19635559 -9.93359375 15.18359375 C-9.43214844 14.55646484 -8.93070313 13.92933594 -8.4140625 13.28320312 C-7.45673733 12.08654666 -6.49476571 10.89358682 -5.52734375 9.70507812 C-3.05697938 6.60609425 -1.24356773 3.77285802 0 0 Z " fill="#E4E5E5" transform="translate(1203,422)"/>
<path d="M0 0 C16.5 0 33 0 50 0 C49.67 1.98 49.34 3.96 49 6 C48.34 6 47.68 6 47 6 C46.34 9.3 45.68 12.6 45 16 C33.78 16 22.56 16 11 16 C10.46375 18.784375 9.9275 21.56875 9.375 24.4375 C7.13974806 35.79261812 4.4099081 47.01750142 1.66210938 58.25732422 C0.5643772 62.80449356 -0.45450842 67.36842624 -1.45703125 71.9375 C-2 74 -2 74 -3 75 C-7.01462657 75.50063283 -11.04204739 75.72656274 -15.08105469 75.94213867 C-16.43402833 76.02181091 -17.78614187 76.11794284 -19.13671875 76.23120117 C-30.33258456 77.16189876 -30.33258456 77.16189876 -34.4230957 74.31152344 C-36.20846866 72.28919498 -37.63079545 70.31941296 -39 68 C-39.639375 67.05125 -40.27875 66.1025 -40.9375 65.125 C-42 63 -42 63 -42 61 C-38.535 60.505 -38.535 60.505 -35 60 C-35 59.67 -35 59.34 -35 59 C-27.41 59 -19.82 59 -12 59 C-11.67 56.36 -11.34 53.72 -11 51 C-10.34881715 47.19282866 -9.57685157 43.4109708 -8.8125 39.625 C-8.59762939 38.55386963 -8.38275879 37.48273926 -8.16137695 36.37915039 C-5.68363879 24.19539195 -2.84388004 12.10302437 0 0 Z " fill="#E5E5E5" transform="translate(320,509)"/>
<path d="M0 0 C3.27516516 1.63758258 3.6048512 4.86791567 4.76806641 8.19995117 C8.21414391 18.68469768 10.15132956 26.17525361 7 37 C6.78472656 37.84304688 6.56945312 38.68609375 6.34765625 39.5546875 C5.88669111 41.3058095 5.40020977 43.05032551 4.89453125 44.7890625 C3.77326096 48.81388422 2.82606793 52.86963641 1.875 56.9375 C-0.35330576 66.40002219 -2.6730158 75.83894506 -5.02337646 85.27175903 C-5.4206146 86.86681705 -5.81699415 88.46208916 -6.21246338 90.05758667 C-8.28858518 98.42893575 -10.38320008 106.77704319 -13 115 C-17.30461426 115.24835783 -21.60538567 115.42912304 -25.91503906 115.54931641 C-27.37834298 115.59942955 -28.84115031 115.66755153 -30.30273438 115.75439453 C-34.99058688 116.02583013 -39.39419246 116.09876675 -44 115 C-47.12052175 112.06010456 -48.52328966 108.97459055 -50 105 C-50.66 103.68 -51.32 102.36 -52 101 C-36.655 100.505 -36.655 100.505 -21 100 C-19.66107654 93.3053827 -18.97434306 89.70273111 -19.11767578 83.45751953 C-18.86407872 78.1614448 -17.26202726 73.04872752 -15.9375 67.9375 C-15.28981544 65.35489518 -14.6446744 62.7718141 -14.00390625 60.1875 C-13.83802002 59.52149277 -13.67213379 58.85548553 -13.5012207 58.16929626 C-11.63562591 50.62619423 -10.00508776 43.03427066 -8.375 35.4375 C-5.81872776 23.56192278 -3.06589858 11.754966 0 0 Z " fill="#E4E4E4" transform="translate(594,470)"/>
<path d="M0 0 C1.68997323 1.64302953 3.35216394 3.31471312 5 5 C5.78375 5.763125 6.5675 6.52625 7.375 7.3125 C11.01419047 13.33116116 6.91906399 23.85242989 5.5625 30.4375 C5.34529297 31.53771484 5.12808594 32.63792969 4.90429688 33.77148438 C4.68966797 34.81498047 4.47503906 35.85847656 4.25390625 36.93359375 C4.06127197 37.88290771 3.8686377 38.83222168 3.67016602 39.81030273 C3.44901123 40.53290283 3.22785645 41.25550293 3 42 C-0.27784447 43.63892223 -3.90973244 43.17762961 -7.51367188 43.19628906 C-8.39522949 43.20435074 -9.27678711 43.21241241 -10.18505859 43.22071838 C-18.33384076 43.28523473 -26.4831073 43.28257791 -34.63207245 43.26091385 C-40.10503587 43.24676015 -45.57611667 43.25362386 -51.04882812 43.31201172 C-56.34277993 43.36808373 -61.63425529 43.37012453 -66.92835999 43.3347702 C-68.94089036 43.33037153 -70.95355739 43.34477369 -72.96580505 43.37879181 C-89.50355161 43.63647039 -89.50355161 43.63647039 -94.48852539 39.56774902 C-97.90916105 36.17743021 -100.47039864 32.58880409 -102 28 C-70.32 28 -38.64 28 -6 28 C-5.67 23.38 -5.34 18.76 -5 14 C-4.38375813 10.30254879 -3.76933239 6.65993077 -3 3 C-2.34 3 -1.68 3 -1 3 C-0.67 2.01 -0.34 1.02 0 0 Z " fill="#E4E4E5" transform="translate(924,542)"/>
<path d="M0 0 C4.49823356 -0.10002059 8.99585192 -0.17200172 13.49487305 -0.21972656 C15.02037859 -0.23965311 16.54580968 -0.26680485 18.07104492 -0.30175781 C38.02370796 -0.74704205 38.02370796 -0.74704205 45.73413086 5.37744141 C49.00100137 8.89490388 49.17685343 11.0611206 50 16 C30.695 15.505 30.695 15.505 11 15 C11 17.64 11 20.28 11 23 C10.64727783 25.68336487 10.64727783 25.68336487 10.14550781 28.07641602 C9.95821106 28.98839249 9.77091431 29.90036896 9.57794189 30.83998108 C9.37175232 31.80157639 9.16556274 32.76317169 8.953125 33.75390625 C8.74065125 34.77242172 8.52817749 35.79093719 8.30926514 36.84031677 C7.85906129 38.99012746 7.40498586 41.1391306 6.94726562 43.28735352 C6.25770807 46.52629421 5.58095054 49.76770132 4.90625 53.00976562 C2.58056261 64.10025152 0.10712134 75.09980524 -3 86 C-6.96 86 -10.92 86 -15 86 C-16.33876873 79.06185548 -15.39894589 73.53341634 -13.83203125 66.6953125 C-13.5959465 65.61732391 -13.35986176 64.53933533 -13.11662292 63.42868042 C-12.36082267 59.99127896 -11.58700534 56.55822978 -10.8125 53.125 C-10.31065051 50.85703569 -9.80998868 48.58880824 -9.31054688 46.3203125 C-7.49519595 38.09736192 -5.66316675 29.87833371 -3.77880859 21.67089844 C-3.59468918 20.86184052 -3.41056976 20.05278259 -3.22087097 19.21920776 C-2.88965814 17.76552183 -2.55458751 16.31270526 -2.21430969 14.8611145 C-1.09408039 9.93017396 -0.47283089 5.02522913 0 0 Z " fill="#E5E5E5" transform="translate(740,452)"/>
<path d="M0 0 C3.41796875 3.3203125 3.41796875 3.3203125 5 5 C5.92554688 5.79148437 6.85109375 6.58296875 7.8046875 7.3984375 C9.68510813 9.68052525 10.0034266 10.73195822 9.96508789 13.73095703 C9.43401608 17.03557663 8.72888402 20.24799439 7.9375 23.5 C7.69322266 24.61503906 7.44894531 25.73007812 7.19726562 26.87890625 C6.03963688 32.05890901 4.68341468 36.94975595 3 42 C-18.78 42 -40.56 42 -63 42 C-63.33 45.3 -63.66 48.6 -64 52 C-64.33 52.99 -64.66 53.98 -65 55 C-68.96 55 -72.92 55 -77 55 C-78 50 -78 50 -73 27 C-51.22 26.67 -29.44 26.34 -7 26 C-5.68 19.4 -4.36 12.8 -3 6 C-2.34 5.34 -1.68 4.68 -1 4 C-0.3574765 1.93125966 -0.3574765 1.93125966 0 0 Z " fill="#E4E4E4" transform="translate(950,425)"/>
<path d="M0 0 C1.87075195 -0.0309375 1.87075195 -0.0309375 3.77929688 -0.0625 C12.20326455 -0.09791342 19.9811906 0.19120094 27.16015625 4.984375 C30.46342221 10.32112781 29.23065805 18.84753362 28.0546875 24.8359375 C26.55551352 29.33345944 24.34900718 32.4512773 20.5625 35.25 C12.02245257 37.90895531 3.34366254 37.4751847 -5.5 37.375 C-7.04882234 37.36495008 -8.59765099 37.35582779 -10.14648438 37.34765625 C-13.91031428 37.32580207 -17.67383623 37.29138343 -21.4375 37.25 C-20.90392975 29.19239925 -19.29897902 21.53293161 -17.4375 13.6875 C-17.16421875 12.50091797 -16.8909375 11.31433594 -16.609375 10.09179688 C-13.90460774 -1.47638663 -11.61570902 0.04671979 0 0 Z " fill="#E5E5E5" transform="translate(1006.4375,451.75)"/>
<path d="M0 0 C5.81716037 3.49029622 5.81716037 3.49029622 8.3125 6.25 C8.82425781 6.79140625 9.33601562 7.3328125 9.86328125 7.890625 C14.60531113 16.69026808 5.7718501 39.65531625 5 43 C-23.215 43.495 -23.215 43.495 -52 44 C-52.66 47.63 -53.32 51.26 -54 55 C-58.95 55 -63.9 55 -69 55 C-68.34949178 49.08444089 -67.31164035 43.36508285 -66 37.5625 C-65.82210937 36.74845703 -65.64421875 35.93441406 -65.4609375 35.09570312 C-64.12676222 29.12676222 -64.12676222 29.12676222 -63 28 C-61.22096643 27.87677242 -59.43713797 27.82210981 -57.65405273 27.79467773 C-56.5129454 27.77473251 -55.37183807 27.75478729 -54.19615173 27.73423767 C-52.9545076 27.71752518 -51.71286346 27.70081268 -50.43359375 27.68359375 C-49.16983414 27.66281265 -47.90607452 27.64203156 -46.60401917 27.62062073 C-43.23881367 27.56616286 -39.87359827 27.5159572 -36.50830078 27.46777344 C-33.0764411 27.41760242 -29.64467076 27.36194718 -26.21289062 27.30664062 C-19.4753284 27.19846407 -12.73771863 27.09948878 -6 27 C-3.03 13.635 -3.03 13.635 0 0 Z " fill="#E6E6E6" transform="translate(928,483)"/>
<path d="M0 0 C3.58271776 -0.1743959 7.16434602 -0.28087658 10.75 -0.375 C11.76578125 -0.42527344 12.7815625 -0.47554687 13.828125 -0.52734375 C16.66831792 -0.58340019 19.21420627 -0.56245309 22 0 C25.46347225 3.68280849 26.65743411 6.97570032 27 12 C26.67 12.66 26.34 13.32 26 14 C21.05 14 16.1 14 11 14 C10.896875 15.258125 10.79375 16.51625 10.6875 17.8125 C10.29847419 21.3507824 9.61643937 24.6090557 8.6171875 28.0234375 C6.88237252 34.22739435 5.64173616 40.487411 4.4375 46.8125 C4.02324294 48.98638767 3.60538783 51.15959339 3.18359375 53.33203125 C3.00368896 54.27796143 2.82378418 55.2238916 2.63842773 56.19848633 C1.95125663 59.21389298 1.02115935 62.0824403 0 65 C-4.10627682 65.29947601 -8.20824798 65.51555839 -12.32299805 65.65917969 C-13.71767916 65.71908286 -15.11162046 65.80066059 -16.50366211 65.90527344 C-21.18400097 66.24786014 -25.42334045 66.25463706 -30 65 C-34.03621804 61.50128323 -36.68875158 57.85985328 -39 53 C-39 51.68 -39 50.36 -39 49 C-29.43 48.67 -19.86 48.34 -10 48 C-8.9171875 42.5240625 -8.9171875 42.5240625 -7.8125 36.9375 C-5.35684429 24.5918757 -2.72109854 12.28956593 0 0 Z " fill="#E5E5E5" transform="translate(977,519)"/>
<path d="M0 0 C4.06853343 1.35617781 5.46850875 3.60247226 8 7 C8.97394872 9.45217547 9.1958651 10.5009869 8.22265625 12.98046875 C7.64837891 14.07294922 7.64837891 14.07294922 7.0625 15.1875 C5.05037406 19.83199135 4.87341847 23.76019522 5.09375 28.7265625 C5.29011468 38.23785104 3.5470376 46.95480376 1.4375 56.1875 C1.07334458 57.84109052 0.71057326 59.4949864 0.34912109 61.14916992 C-0.74077269 66.10558734 -1.86590358 71.05353556 -3 76 C-3.25961517 77.13653015 -3.25961517 77.13653015 -3.5244751 78.29602051 C-5.41271364 86.55918594 -7.34452976 94.81139785 -9.30761719 103.05712891 C-10.24239226 107.03025256 -11.12714937 111.01285224 -12 115 C-16.51095985 113.58226976 -19.2684022 111.90228257 -22 108 C-22.86549774 100.23359037 -21.6624162 92.69228241 -20 85.125 C-19.78069824 84.07965088 -19.56139648 83.03430176 -19.33544922 81.95727539 C-18.70731499 78.97139599 -18.06839413 75.98800446 -17.4276123 73.00482178 C-16.6494023 69.35625427 -15.89249975 65.70324166 -15.1328125 62.05078125 C-13.45076743 53.97557788 -11.74394425 45.90581169 -10.02734375 37.83789062 C-9.34325053 34.62135565 -8.66372773 31.4039085 -7.98828125 28.18554688 C-7.19243363 24.39388435 -6.38846792 20.60403745 -5.57806396 16.81546021 C-5.27748754 15.40370664 -4.97980943 13.99133269 -4.68511963 12.57833862 C-4.27978934 10.63779017 -3.86287226 8.69967251 -3.4453125 6.76171875 C-3.21344238 5.66819092 -2.98157227 4.57466309 -2.74267578 3.44799805 C-2.49759277 2.64015869 -2.25250977 1.83231934 -2 1 C-1.34 0.67 -0.68 0.34 0 0 Z " fill="#E4E5E5" transform="translate(471,425)"/>
<path d="M0 0 C0.33 0.99 0.66 1.98 1 3 C1.66 3 2.32 3 3 3 C3.08869652 6.43733117 3.14094878 9.87436025 3.1875 13.3125 C3.21263672 14.26962891 3.23777344 15.22675781 3.26367188 16.21289062 C3.33531627 23.30568604 2.10026955 29.25582124 0 36 C-0.50726688 37.83133597 -1.00727628 39.66469772 -1.5 41.5 C-3 47 -3 47 -4.5 52.5 C-4.74709717 53.41031982 -4.99419434 54.32063965 -5.2487793 55.25854492 C-5.74401847 57.06583798 -6.24789912 58.87078842 -6.76098633 60.6730957 C-8.76542504 67.7818534 -10.28188648 74.93861092 -11.6875 82.1875 C-11.91244141 83.33025391 -12.13738281 84.47300781 -12.36914062 85.65039062 C-12.91633159 88.43291489 -13.45988712 91.21609477 -14 94 C-17.3 94 -20.6 94 -24 94 C-21.9526111 81.87810758 -19.05583186 70.10254432 -15.8125 58.25 C-15.32330737 56.44410295 -14.83446045 54.63811222 -14.34594727 52.83203125 C-11.15768838 41.07931119 -7.88044535 29.35309975 -4.4621582 17.66503906 C-2.75626568 11.80757293 -1.25040301 5.97207408 0 0 Z " fill="#E2E4E4" transform="translate(540,326)"/>
<path d="M0 0 C0.33 0 0.66 0 1 0 C1.64715128 17.06561886 1.64715128 17.06561886 -4.125 24.875 C-12.15479471 30.81006566 -23.53490339 29.23293259 -33.0625 29.125 C-34.61132234 29.11495008 -36.16015099 29.10582779 -37.70898438 29.09765625 C-41.47281428 29.07580207 -45.23633623 29.04138343 -49 29 C-48.67 28.34 -48.34 27.68 -48 27 C-43.71 27.33 -39.42 27.66 -35 28 C-34.731875 25.999375 -34.46375 23.99875 -34.1875 21.9375 C-32.43074324 10.43074324 -32.43074324 10.43074324 -29 7 C-27.10888327 6.90022976 -25.21405814 6.86919328 -23.3203125 6.8671875 C-22.16402344 6.86589844 -21.00773438 6.86460937 -19.81640625 6.86328125 C-18.59824219 6.86714844 -17.38007812 6.87101562 -16.125 6.875 C-14.91457031 6.87113281 -13.70414063 6.86726563 -12.45703125 6.86328125 C-10.71873047 6.86521484 -10.71873047 6.86521484 -8.9453125 6.8671875 C-7.87812988 6.86831543 -6.81094727 6.86944336 -5.71142578 6.87060547 C-3 7 -3 7 0 8 C0 5.36 0 2.72 0 0 Z " fill="#FDFDFD" transform="translate(1034,460)"/>
<path d="M0 0 C0.33 0.99 0.66 1.98 1 3 C1.66 3 2.32 3 3 3 C4.02137457 4.65365406 5.01612294 6.32376502 6 8 C6.9075 8.928125 7.815 9.85625 8.75 10.8125 C11.27089947 14.38377425 11.11297618 15.43915769 10.45361328 19.58081055 C9.54984693 24.40073563 8.58068898 29.20293471 7.5625 34 C7.34529297 35.0415625 7.12808594 36.083125 6.90429688 37.15625 C5.71695784 42.80413297 4.44396709 48.41218318 3 54 C-1.62 54 -6.24 54 -11 54 C-7.60903372 35.9348522 -3.92330201 17.95657337 0 0 Z " fill="#E4E4E5" transform="translate(338,422)"/>
<path d="M0 0 C1.26714844 -0.00128906 2.53429687 -0.00257813 3.83984375 -0.00390625 C4.83056885 -0.00076416 4.83056885 -0.00076416 5.84130859 0.00244141 C7.83821019 0.00775617 9.83513127 0.00198431 11.83203125 -0.00390625 C13.10433594 -0.00261719 14.37664062 -0.00132812 15.6875 0 C17.42628418 0.00169189 17.42628418 0.00169189 19.20019531 0.00341797 C22.72955571 0.13737393 26.12408537 0.57412312 29.609375 1.1328125 C30.104375 5.0928125 30.104375 5.0928125 30.609375 9.1328125 C29.949375 9.1328125 29.289375 9.1328125 28.609375 9.1328125 C28.279375 10.7828125 27.949375 12.4328125 27.609375 14.1328125 C18.99512574 17.00422892 7.47540405 16.74440816 -1.390625 15.1328125 C-5.07112017 13.23022165 -6.67206746 10.48737219 -8.5546875 6.83203125 C-9.390625 4.1328125 -9.390625 4.1328125 -9.390625 1.1328125 C-6.04824864 0.01868705 -3.52050935 0.00343896 0 0 Z " fill="#E4E4E4" transform="translate(185.390625,451.8671875)"/>
<path d="M0 0 C7.94871486 9.36812823 11.5250751 20.17163755 15 31.77734375 C15.91489965 34.72575083 16.92229674 37.60788227 18 40.5 C19.83098752 45.43725428 21.41370135 50.42046842 22.91015625 55.46875 C23.69849744 58.02308847 24.53024378 60.51882656 25.43359375 63.03125 C28.1454284 70.74864164 30.02079783 76.99584779 27 85 C24.99006295 81.98509443 24.27376659 79.7850073 23.375 76.3125 C22.98441406 74.82169922 22.98441406 74.82169922 22.5859375 73.30078125 C22.39257812 72.54152344 22.19921875 71.78226562 22 71 C21.34 71 20.68 71 20 71 C17.70230072 63.7589245 15.40702151 56.51708558 13.11471081 49.27430248 C12.0498804 45.91012056 10.9842617 42.54619287 9.91674805 39.18286133 C8.68554153 35.30366932 7.45793253 31.42334669 6.23046875 27.54296875 C5.85222458 26.35293747 5.47398041 25.16290619 5.08427429 23.93681335 C3.39480497 18.58735865 1.73378095 13.22963504 0.1730957 7.84106445 C-0.07876999 6.97713577 -0.33063568 6.11320709 -0.59013367 5.22309875 C-1 3 -1 3 0 0 Z " fill="#E6E7E7" transform="translate(616,430)"/>
<path d="M0 0 C8.91 0 17.82 0 27 0 C26.34 3.96 25.68 7.92 25 12 C24.505 11.01 24.505 11.01 24 10 C22.81241089 10.04713135 22.81241089 10.04713135 21.60083008 10.09521484 C18.00501205 10.22012637 14.40965035 10.29803601 10.8125 10.375 C9.56662109 10.42527344 8.32074219 10.47554688 7.03710938 10.52734375 C-1.97030646 10.67223516 -1.97030646 10.67223516 -4.97900391 8.70800781 C-6.80255651 6.59178628 -8 4.85098689 -8 2 C-5.36 1.67 -2.72 1.34 0 1 C0 0.67 0 0.34 0 0 Z " fill="#E0E3E4" transform="translate(485,452)"/>
<path d="M0 0 C0.33 0.66 0.66 1.32 1 2 C31.69 2 62.38 2 94 2 C94.33 1.34 94.66 0.68 95 0 C95 1.32 95 2.64 95 4 C63.32 4 31.64 4 -1 4 C-0.67 2.68 -0.34 1.36 0 0 Z " fill="#303030" transform="translate(822,565)"/>
<path d="M0 0 C2.03686197 0.44880009 4.07245542 0.90406707 6.1015625 1.38671875 C11.68172414 2.56742681 17.34920867 3.24441766 23 4 C22.40490107 8.21769142 21.85825008 10.76893469 19 14 C12.0260359 13.84839208 7.1487887 10.57270045 2 6 C0.203125 3.265625 0.203125 3.265625 -1 1 C-0.67 0.67 -0.34 0.34 0 0 Z " fill="#E6E6E5" transform="translate(430,565)"/>
<path d="M0 0 C18.81 0.33 37.62 0.66 57 1 C58.33332095 3.6666419 57.67102033 5.16680303 57 8 C56.01 8 55.02 8 54 8 C54 6.68 54 5.36 54 4 C36.84 4 19.68 4 2 4 C1.34 2.68 0.68 1.36 0 0 Z " fill="#3D3D3D" transform="translate(871,480)"/>
<path d="M0 0 C2.92874643 2.46806225 3.82969827 4.82038475 4.97265625 8.4375 C5.31490234 9.49710937 5.65714844 10.55671875 6.00976562 11.6484375 C6.35716797 12.75445312 6.70457031 13.86046875 7.0625 15 C7.7576588 17.18879358 8.45670744 19.37635662 9.16015625 21.5625 C9.46574463 22.53316406 9.77133301 23.50382812 10.08618164 24.50390625 C10.96084675 27.19568433 10.96084675 27.19568433 13 30 C11.625 32 11.625 32 10 34 C9.34 34 8.68 34 8 34 C6.68696832 29.80469436 5.38732464 25.60554413 4.09985352 21.40234375 C3.66014138 19.97348189 3.21680998 18.54572853 2.76977539 17.11914062 C2.12729133 15.06662203 1.49799129 13.01044979 0.87109375 10.953125 C0.48880615 9.71723633 0.10651855 8.48134766 -0.28735352 7.20800781 C-0.95190917 4.21648289 -1.10290049 2.79849544 0 0 Z " fill="#E3E5E4" transform="translate(1123,433)"/>
<path d="M0 0 C0.91475601 -0.0033284 1.82951202 -0.0066568 2.77198792 -0.01008606 C4.6870982 -0.01511174 6.60221711 -0.01749575 8.51733398 -0.01733398 C11.45766194 -0.01954347 14.39762773 -0.0378069 17.33789062 -0.05664062 C19.20442581 -0.05957082 21.07096276 -0.06155811 22.9375 -0.0625 C24.257714 -0.07327827 24.257714 -0.07327827 25.604599 -0.08427429 C31.77505223 -0.06088527 31.77505223 -0.06088527 34.00390625 2.16796875 C16.51390625 2.49796875 -0.97609375 2.82796875 -18.99609375 3.16796875 C-18.99609375 2.50796875 -18.99609375 1.84796875 -18.99609375 1.16796875 C-12.62836119 0.36362781 -6.41495143 0.00824357 0 0 Z " fill="#313131" transform="translate(747.99609375,421.83203125)"/>
<path d="M0 0 C3.25925193 3.25925193 3.58527885 7.51164692 4 12 C3.62668385 14.58134457 2.9580538 16.55164029 2 19 C-1.13385458 14.29921814 -4.04659669 7.75628179 -3 2 C-2.01 1.34 -1.02 0.68 0 0 Z " fill="#E1E1E2" transform="translate(641,496)"/>
<path d="M0 0 C4.66307014 -0.04937279 9.32598873 -0.08570627 13.98925781 -0.10986328 C15.57619883 -0.11993188 17.16312125 -0.13358767 18.75 -0.15087891 C21.02869247 -0.17509001 23.30714006 -0.18647422 25.5859375 -0.1953125 C26.29744965 -0.20563507 27.00896179 -0.21595764 27.74203491 -0.22659302 C29.49631665 -0.22699422 31.24996709 -0.12202209 33 0 C33.66 0.66 34.32 1.32 35 2 C24.11 2 13.22 2 2 2 C1.34 3.32 0.68 4.64 0 6 C0 4.02 0 2.04 0 0 Z " fill="#363636" transform="translate(574,422)"/>
<path d="M0 0 C11.88 0.33 23.76 0.66 36 1 C35.34 1.33 34.68 1.66 34 2 C34 2.66 34 3.32 34 4 C23.11 4 12.22 4 1 4 C0.67 2.68 0.34 1.36 0 0 Z " fill="#373839" transform="translate(984,488)"/>
<path d="M0 0 C4.43744539 -0.05793591 8.87479389 -0.09357467 13.3125 -0.125 C14.57513672 -0.14175781 15.83777344 -0.15851562 17.13867188 -0.17578125 C18.95141602 -0.18544922 18.95141602 -0.18544922 20.80078125 -0.1953125 C21.91622314 -0.20578613 23.03166504 -0.21625977 24.1809082 -0.22705078 C27 0 27 0 30 2 C30.33 1.34 30.66 0.68 31 0 C31 0.99 31 1.98 31 3 C20.44 3 9.88 3 -1 3 C-0.67 2.01 -0.34 1.02 0 0 Z " fill="#1D1D1E" transform="translate(1015,565)"/>
<path d="M0 0 C0.33 0 0.66 0 1 0 C1 1.98 1 3.96 1 6 C-9.23 6 -19.46 6 -30 6 C-29.34 4.35 -28.68 2.7 -28 1 C-27.67 1.99 -27.34 2.98 -27 4 C-18.42 3.67 -9.84 3.34 -1 3 C-0.67 2.01 -0.34 1.02 0 0 Z " fill="#040405" transform="translate(571,563)"/>
<path d="M0 0 C9.9 0 19.8 0 30 0 C30 0.33 30 0.66 30 1 C22.08 1 14.16 1 6 1 C6 2.65 6 4.3 6 6 C5.34 6 4.68 6 4 6 C4.99 9.3 5.98 12.6 7 16 C5 15 5 15 3.7109375 11.62109375 C3.25661348 10.22947228 2.81321091 8.83427909 2.375 7.4375 C1.199375 3.7559375 1.199375 3.7559375 0 0 Z " fill="#0B74CA" transform="translate(1082,423)"/>
<path d="M0 0 C10.23 0 20.46 0 31 0 C24.78250083 3.10874959 19.49900079 3.13238912 12.6875 3.0625 C11.85154297 3.05798828 11.01558594 3.05347656 10.15429688 3.04882812 C8.10283351 3.03710548 6.05140727 3.01917203 4 3 C4 3.66 4 4.32 4 5 C3.34 5 2.68 5 2 5 C2 4.01 2 3.02 2 2 C1.34 1.34 0.68 0.68 0 0 Z " fill="#D8D8D8" transform="translate(357,568)"/>
<path d="M0 0 C-0.33 0.99 -0.66 1.98 -1 3 C-10.57 3 -20.14 3 -30 3 C-30.33 4.32 -30.66 5.64 -31 7 C-31 5.02 -31 3.04 -31 1 C-26.90659073 0.8571448 -22.81316608 0.71473966 -18.71972656 0.57275391 C-17.3268186 0.52437552 -15.93391492 0.47587355 -14.54101562 0.42724609 C-12.54037587 0.3574232 -10.53971941 0.28807969 -8.5390625 0.21875 C-6.73236084 0.1559082 -6.73236084 0.1559082 -4.88916016 0.09179688 C-3.25997501 0.04003301 -1.63000728 0 0 0 Z " fill="#050505" transform="translate(694,423)"/>
<path d="M0 0 C1.00023193 0.00523682 2.00046387 0.01047363 3.03100586 0.01586914 C4.1105957 0.0190918 5.19018555 0.02231445 6.30249023 0.02563477 C8.00695312 0.03820312 8.00695312 0.03820312 9.74584961 0.05102539 C11.45611328 0.05779297 11.45611328 0.05779297 13.20092773 0.06469727 C16.02845312 0.07652792 18.85587601 0.09301129 21.68334961 0.11352539 C18.86913886 2.50334587 17.12240755 3.48588922 13.42553711 3.55493164 C12.24024414 3.59457031 12.24024414 3.59457031 11.03100586 3.63500977 C10.2150293 3.64854492 9.39905273 3.66208008 8.55834961 3.67602539 C6.93054159 3.7104157 5.3028798 3.75299517 3.67553711 3.80493164 C2.95736816 3.8172583 2.23919922 3.82958496 1.49926758 3.84228516 C-0.56650042 3.96678345 -0.56650042 3.96678345 -2.31665039 6.11352539 C-2.69883806 4.45737882 -3.03060141 2.78895515 -3.31665039 1.11352539 C-2.31665039 0.11352539 -2.31665039 0.11352539 0 0 Z " fill="#DADADB" transform="translate(251.316650390625,450.886474609375)"/>
<path d="M0 0 C4.2864296 0.47626996 6.22104119 2.87367133 9 6 C12.62041355 10.96513858 15 14.78853341 15 21 C14.34 21 13.68 21 13 21 C12.67 18.69 12.34 16.38 12 14 C11.34 14 10.68 14 10 14 C9.731875 13.443125 9.46375 12.88625 9.1875 12.3125 C6.75835977 6.91833902 6.75835977 6.91833902 2 4 C0.8125 1.9375 0.8125 1.9375 0 0 Z " fill="#181717" transform="translate(1051,427)"/>
<path d="M0 0 C13.86 0.33 27.72 0.66 42 1 C42 1.33 42 1.66 42 2 C27.81 2.33 13.62 2.66 -1 3 C-0.67 2.01 -0.34 1.02 0 0 Z " fill="#040404" transform="translate(176,448)"/>
<path d="M0 0 C2 3 2 3 1 9 C-4.61 9 -10.22 9 -16 9 C-15.67 8.34 -15.34 7.68 -15 7 C-12.05859375 6.5859375 -12.05859375 6.5859375 -8.4375 6.375 C-7.23996094 6.30023438 -6.04242188 6.22546875 -4.80859375 6.1484375 C-3.41833984 6.07496094 -3.41833984 6.07496094 -2 6 C-1.34 4.02 -0.68 2.04 0 0 Z " fill="#181919" transform="translate(290,442)"/>
<path d="M0 0 C0.33 0 0.66 0 1 0 C1 1.98 1 3.96 1 6 C-7.91 6 -16.82 6 -26 6 C-26 5.67 -26 5.34 -26 5 C-13.625 4.01 -13.625 4.01 -1 3 C-0.67 2.01 -0.34 1.02 0 0 Z " fill="#050605" transform="translate(307,562)"/>
<path d="M0 0 C0.66 0.33 1.32 0.66 2 1 C2.99 4.3 3.98 7.6 5 11 C-2.92 11 -10.84 11 -19 11 C-19 10.67 -19 10.34 -19 10 C-8.605 9.505 -8.605 9.505 2 9 C1.34 6.03 0.68 3.06 0 0 Z " fill="#0E7ACF" transform="translate(1170,556)"/>
<path d="M0 0 C3.5736213 3.5736213 4.1073486 8.30159705 4.1953125 13.18359375 C4.18224243 14.60169596 4.15872534 16.01973863 4.125 17.4375 C4.11597656 18.16904297 4.10695313 18.90058594 4.09765625 19.65429688 C4.07436153 21.43634298 4.0385019 23.21821759 4 25 C1.36095406 21.96463633 0.61035616 20.0196819 0.48828125 16.015625 C0.45283203 15.08105469 0.41738281 14.14648438 0.38085938 13.18359375 C0.35830078 12.21550781 0.33574219 11.24742187 0.3125 10.25 C0.27833984 9.26644531 0.24417969 8.28289062 0.20898438 7.26953125 C0.12664727 4.84646801 0.05745162 2.42376002 0 0 Z " fill="#D8D9D9" transform="translate(820,450)"/>
<path d="M0 0 C0.66 0 1.32 0 2 0 C2.33228074 5.20573155 1.50767407 9.01685456 -0.265625 13.91015625 C-1.08573868 16.24399038 -1.60631189 18.55913374 -2 21 C-2.33 21 -2.66 21 -3 21 C-3.43230491 13.65081658 -1.81774185 7.09784913 0 0 Z " fill="#EBEBEB" transform="translate(740,457)"/>
<path d="M0 0 C4.29 0 8.58 0 13 0 C13 0.33 13 0.66 13 1 C9.37 1.66 5.74 2.32 2 3 C1.01 7.62 0.02 12.24 -1 17 C-1.66 17 -2.32 17 -3 17 C-2.01 11.39 -1.02 5.78 0 0 Z " fill="#0B0A0B" transform="translate(439,422)"/>
<path d="M0 0 C2.25573714 2.25573714 2.88484077 3.97100221 4 6.9375 C5.14475798 9.97379167 6.18457103 12.27685655 8 15 C7.625 17.6875 7.625 17.6875 7 20 C6.34 20 5.68 20 5 20 C4.16169027 17.23058394 3.32917966 14.45964931 2.5 11.6875 C2.26152344 10.90181641 2.02304687 10.11613281 1.77734375 9.30664062 C1.55175781 8.54931641 1.32617188 7.79199219 1.09375 7.01171875 C0.88427734 6.31522217 0.67480469 5.61872559 0.45898438 4.90112305 C0 3 0 3 0 0 Z " fill="#F3F3F4" transform="translate(637,501)"/>
<path d="M0 0 C2 2 2 2 2.875 3.875 C4.21259274 6.40156407 5.92063932 8.05926336 8 10 C6.625 12 6.625 12 5 14 C4.34 14 3.68 14 3 14 C2.49307308 12.4188708 1.99473557 10.83498617 1.5 9.25 C1.2215625 8.36828125 0.943125 7.4865625 0.65625 6.578125 C0 4 0 4 0 0 Z " fill="#E3E8E6" transform="translate(1128,453)"/>
<path d="M0 0 C0.99 0 1.98 0 3 0 C2.88557539 1.60495567 2.75805306 3.20898119 2.625 4.8125 C2.55539062 5.70582031 2.48578125 6.59914063 2.4140625 7.51953125 C2 10 2 10 0 13 C-0.66 13 -1.32 13 -2 13 C-1.85769192 11.58297487 -1.71099254 10.1663904 -1.5625 8.75 C-1.48128906 7.96109375 -1.40007812 7.1721875 -1.31640625 6.359375 C-1.02365007 4.17635361 -0.57935581 2.1226818 0 0 Z " fill="#191A1A" transform="translate(434,445)"/>
<path d="M0 0 C0.33 1.32 0.66 2.64 1 4 C4.96 4 8.92 4 13 4 C12.67 4.66 12.34 5.32 12 6 C7.71 6 3.42 6 -1 6 C-0.67 4.02 -0.34 2.04 0 0 Z " fill="#F6F7F6" transform="translate(724,534)"/>
<path d="M0 0 C0.66 1.32 1.32 2.64 2 4 C1.67 4.66 1.34 5.32 1 6 C3.31 6 5.62 6 8 6 C8 6.99 8 7.98 8 9 C5.03 9 2.06 9 -1 9 C-0.67 6.03 -0.34 3.06 0 0 Z " fill="#1C1C1C" transform="translate(277,560)"/>
<path d="M0 0 C0.33 0 0.66 0 1 0 C0.88597936 2.27141109 0.75841495 4.54214552 0.625 6.8125 C0.55539062 8.07707031 0.48578125 9.34164063 0.4140625 10.64453125 C0 14 0 14 -2 17 C-2.33 16.67 -2.66 16.34 -3 16 C-2.84550243 10.46185633 -1.67670682 5.25368138 0 0 Z " fill="#0B0B0B" transform="translate(303,447)"/>
<path d="M0 0 C2.52480693 2.52480693 2.55738633 4.13823034 3.125 7.625 C3.29257813 8.62789062 3.46015625 9.63078125 3.6328125 10.6640625 C3.75398438 11.43492187 3.87515625 12.20578125 4 13 C0.98101014 11.49050507 0.40039451 8.98344918 -1 6 C-1.33 5.34 -1.66 4.68 -2 4 C-1.0625 1.875 -1.0625 1.875 0 0 Z " fill="#DCDFE2" transform="translate(1162,522)"/>
<path d="M0 0 C0.66 0.66 1.32 1.32 2 2 C1.9765625 5.0390625 1.9765625 5.0390625 1.625 8.625 C1.51414062 9.81351562 1.40328125 11.00203125 1.2890625 12.2265625 C1.19367187 13.14179688 1.09828125 14.05703125 1 15 C0.01 14.67 -0.98 14.34 -2 14 C-1.03644647 4.58997722 -1.03644647 4.58997722 0 0 Z " fill="#222122" transform="translate(845,455)"/>
<path d="M0 0 C2.83022097 3.99560608 1.76210446 7.42737323 1 12 C0.01 12.33 -0.98 12.66 -2 13 C-1.48041715 8.62065881 -0.94324258 4.31196609 0 0 Z " fill="#212020" transform="translate(964,440)"/>
<path d="M0 0 C1.53202706 0.25195908 3.05257128 0.57596777 4.5625 0.9375 C5.38878906 1.13214844 6.21507812 1.32679688 7.06640625 1.52734375 C8.02353516 1.76130859 8.02353516 1.76130859 9 2 C9 2.66 9 3.32 9 4 C8.21625 3.95875 7.4325 3.9175 6.625 3.875 C3.83883881 3.71271266 3.83883881 3.71271266 2 6 C1.01 4.35 0.02 2.7 -1 1 C-0.67 0.67 -0.34 0.34 0 0 Z " fill="#EDEEEE" transform="translate(430,565)"/>
<path d="M0 0 C1.33804688 0.04060547 1.33804688 0.04060547 2.703125 0.08203125 C3.37859375 0.11683594 4.0540625 0.15164063 4.75 0.1875 C4.75 1.1775 4.75 2.1675 4.75 3.1875 C0.13 3.1875 -4.49 3.1875 -9.25 3.1875 C-5.16748364 0.12561273 -4.68502071 -0.18493503 0 0 Z " fill="#D9D9DA" transform="translate(994.25,518.8125)"/>
<path d="M0 0 C2.64 0.33 5.28 0.66 8 1 C8 1.33 8 1.66 8 2 C6.35 2.33 4.7 2.66 3 3 C2.67 5.31 2.34 7.62 2 10 C1.01 9.67 0.02 9.34 -1 9 C-0.67 6.03 -0.34 3.06 0 0 Z " fill="#1C1B1B" transform="translate(181,422)"/>
<path d="M0 0 C0.33 0 0.66 0 1 0 C1.19658808 1.41543415 1.38187546 2.83244031 1.5625 4.25 C1.66691406 5.03890625 1.77132812 5.8278125 1.87890625 6.640625 C2.00027349 9.00532874 1.69633257 10.7511037 1 13 C0.01 12.67 -0.98 12.34 -2 12 C-1.34 8.04 -0.68 4.08 0 0 Z " fill="#DCDDDC" transform="translate(684,466)"/>
<path d="M0 0 C2.49388574 4.98777148 1.88836125 6.66983248 1 12 C0.01 12 -0.98 12 -2 12 C-1.34 8.04 -0.68 4.08 0 0 Z " fill="#1C1C1C" transform="translate(285,527)"/>
<path d="M0 0 C0.99 0 1.98 0 3 0 C3 1.65 3 3.3 3 5 C4.98 5 6.96 5 9 5 C9 5.33 9 5.66 9 6 C5.7 6.33 2.4 6.66 -1 7 C-0.67 4.69 -0.34 2.38 0 0 Z " fill="#DADBDB" transform="translate(328,469)"/>
<path d="M0 0 C0.99 0.33 1.98 0.66 3 1 C2.67 3.64 2.34 6.28 2 9 C1.01 9 0.02 9 -1 9 C-0.67 6.03 -0.34 3.06 0 0 Z " fill="#1F1F1F" transform="translate(658,447)"/>
<path d="M0 0 C2.64 0.33 5.28 0.66 8 1 C7.67 1.99 7.34 2.98 7 4 C6.34 4 5.68 4 5 4 C5 3.34 5 2.68 5 2 C4.01 2.495 4.01 2.495 3 3 C1.29297265 3.06996014 -0.41668003 3.08440154 -2.125 3.0625 C-3.03507813 3.05347656 -3.94515625 3.04445313 -4.8828125 3.03515625 C-5.58148437 3.02355469 -6.28015625 3.01195312 -7 3 C-7 2.67 -7 2.34 -7 2 C-4.69 2 -2.38 2 0 2 C0 1.34 0 0.68 0 0 Z " fill="#DEDEDF" transform="translate(769,452)"/>
<path d="M0 0 C0.99 0 1.98 0 3 0 C2.7834375 0.7425 2.7834375 0.7425 2.5625 1.5 C1.78005593 4.97752922 1.41305236 8.45955123 1 12 C0.01 12 -0.98 12 -2 12 C-1.34 8.04 -0.68 4.08 0 0 Z " fill="#181818" transform="translate(848,441)"/>
<path d="M0 0 C0.99 0.99 1.98 1.98 3 3 C0.36 5.31 -2.28 7.62 -5 10 C-5 6.60406522 -4.47834052 5.93380119 -2.5 3.3125 C-2.0359375 2.68988281 -1.571875 2.06726563 -1.09375 1.42578125 C-0.7328125 0.95527344 -0.371875 0.48476563 0 0 Z " fill="#137BCD" transform="translate(1166,423)"/>
<path d="M0 0 C2.31243792 -0.02685412 4.6249627 -0.04632841 6.9375 -0.0625 C8.22527344 -0.07410156 9.51304688 -0.08570313 10.83984375 -0.09765625 C14 0 14 0 15 1 C15.04063832 2.66617115 15.042721 4.33388095 15 6 C14.34 5.01 13.68 4.02 13 3 C9.89188713 2.19458793 9.89188713 2.19458793 6.375 1.8125 C4.59222656 1.57466797 4.59222656 1.57466797 2.7734375 1.33203125 C1.85820313 1.22246094 0.94296875 1.11289062 0 1 C0 0.67 0 0.34 0 0 Z " fill="#127ACC" transform="translate(1103,422)"/>
<path d="M0 0 C2 4 2 4 2 8 C1.34 8 0.68 8 0 8 C0.33 9.65 0.66 11.3 1 13 C0.67 12.34 0.34 11.68 0 11 C-0.66 11 -1.32 11 -2 11 C-1.34 7.37 -0.68 3.74 0 0 Z " fill="#1D1D1D" transform="translate(827,539)"/>
<path d="M0 0 C2 2 2 2 2.3125 4.8125 C1.96840628 8.32225593 1.01272399 10.14864101 -1 13 C-2.12758089 9.61725734 -1.81750262 8.23221777 -1.0625 4.8125 C-0.86785156 3.91144531 -0.67320312 3.01039063 -0.47265625 2.08203125 C-0.23869141 1.05142578 -0.23869141 1.05142578 0 0 Z " fill="#202020" transform="translate(656,457)"/>
<path d="M0 0 C0.99 0 1.98 0 3 0 C2.67 2.97 2.34 5.94 2 9 C1.01 9 0.02 9 -1 9 C-0.67 6.03 -0.34 3.06 0 0 Z " fill="#DDDDDD" transform="translate(920,551)"/>
<path d="M0 0 C0.66 0 1.32 0 2 0 C2.66 3.3 3.32 6.6 4 10 C3.34 10 2.68 10 2 10 C2 9.01 2 8.02 2 7 C1.34 7 0.68 7 0 7 C-0.38133299 5.0085944 -0.71325582 3.00720923 -1 1 C-0.67 0.67 -0.34 0.34 0 0 Z " fill="#1F1F1F" transform="translate(1033,524)"/>
<path d="M0 0 C1.47906892 -0.02689216 2.95827483 -0.04634621 4.4375 -0.0625 C5.26121094 -0.07410156 6.08492187 -0.08570313 6.93359375 -0.09765625 C9 0 9 0 10 1 C10.04080783 2.99958364 10.04254356 5.00045254 10 7 C9.01 6.67 8.02 6.34 7 6 C7 4.35 7 2.7 7 1 C4.69 1 2.38 1 0 1 C0 0.67 0 0.34 0 0 Z " fill="#1A1A1A" transform="translate(938,424)"/>
<path d="M0 0 C0.33 0 0.66 0 1 0 C1.33 2.64 1.66 5.28 2 8 C1.34 8 0.68 8 0 8 C0.33 9.32 0.66 10.64 1 12 C0.01 12 -0.98 12 -2 12 C-1.34 8.04 -0.68 4.08 0 0 Z " fill="#212121" transform="translate(837,494)"/>
<path d="M0 0 C2.49388574 4.98777148 1.88836125 6.66983248 1 12 C0.01 11.67 -0.98 11.34 -2 11 C-1.34 7.37 -0.68 3.74 0 0 Z " fill="#1E1E1E" transform="translate(424,490)"/>
<path d="M0 0 C0.66 0.33 1.32 0.66 2 1 C2.59355614 3.64860427 2.74209269 6.29197322 3 9 C2.67 8.01 2.34 7.02 2 6 C1.34 6 0.68 6 0 6 C-0.33 6.99 -0.66 7.98 -1 9 C-0.67 6.03 -0.34 3.06 0 0 Z " fill="#F0F1F1" transform="translate(594,470)"/>
<path d="M0 0 C0.99 0.33 1.98 0.66 3 1 C2.67 3.31 2.34 5.62 2 8 C1.01 8 0.02 8 -1 8 C-0.67 5.36 -0.34 2.72 0 0 Z " fill="#1B1B1B" transform="translate(360,550)"/>
<path d="M0 0 C1.9955516 3.99110319 2.19546065 5.69986566 2 10 C1.01 9.67 0.02 9.34 -1 9 C-0.67 6.03 -0.34 3.06 0 0 Z " fill="#DCDCDD" transform="translate(451,509)"/>
<path d="M0 0 C0.66 0.33 1.32 0.66 2 1 C2.28571429 8.42857143 2.28571429 8.42857143 0 12 C-1.28571429 3.42857143 -1.28571429 3.42857143 0 0 Z " fill="#1E1E1E" transform="translate(676,491)"/>
<path d="M0 0 C0.99 0 1.98 0 3 0 C2.67 2.64 2.34 5.28 2 8 C1.01 7.67 0.02 7.34 -1 7 C-0.67 4.69 -0.34 2.38 0 0 Z " fill="#DDDDDE" transform="translate(688,449)"/>
<path d="M0 0 C3.63 0 7.26 0 11 0 C10.34 1.32 9.68 2.64 9 4 C9 3.34 9 2.68 9 2 C6.03 1.67 3.06 1.34 0 1 C0 0.67 0 0.34 0 0 Z " fill="#F1F1E9" transform="translate(501,452)"/>
<path d="M0 0 C2 4 2 4 1.6875 6.0625 C1.3471875 7.0215625 1.3471875 7.0215625 1 8 C0.67 8.99 0.34 9.98 0 11 C-0.66 11 -1.32 11 -2 11 C-1.34 7.37 -0.68 3.74 0 0 Z " fill="#272626" transform="translate(702,490)"/>
<path d="M0 0 C2 4 2 4 2 8 C1.34 8 0.68 8 0 8 C0 8.99 0 9.98 0 11 C-0.66 11 -1.32 11 -2 11 C-1.34 7.37 -0.68 3.74 0 0 Z " fill="#262627" transform="translate(569,444)"/>
<path d="M0 0 C1.98 0.495 1.98 0.495 4 1 C3.67 2.65 3.34 4.3 3 6 C2.67 5.34 2.34 4.68 2 4 C1.34 4 0.68 4 0 4 C0 5.65 0 7.3 0 9 C-0.33 9 -0.66 9 -1 9 C-0.67 6.03 -0.34 3.06 0 0 Z " fill="#3A93D4" transform="translate(476,443)"/>
<path d="M0 0 C2.31 0 4.62 0 7 0 C7 0.33 7 0.66 7 1 C5.35 1 3.7 1 2 1 C2 2.32 2 3.64 2 5 C1.34 5 0.68 5 0 5 C-0.33 5.66 -0.66 6.32 -1 7 C-0.67 4.69 -0.34 2.38 0 0 Z " fill="#2996DB" transform="translate(461,542)"/>
<path d="M0 0 C0.66 0.33 1.32 0.66 2 1 C2 1.99 2 2.98 2 4 C1.34 4 0.68 4 0 4 C0.33 5.65 0.66 7.3 1 9 C0.67 8.34 0.34 7.68 0 7 C-0.66 7 -1.32 7 -2 7 C-1.34 4.69 -0.68 2.38 0 0 Z " fill="#DBDBDB" transform="translate(392,547)"/>
<path d="M0 0 C-0.33 1.98 -0.66 3.96 -1 6 C-1.33 4.68 -1.66 3.36 -2 2 C-4.31 2 -6.62 2 -9 2 C-9 1.67 -9 1.34 -9 1 C-5.94152152 0.45627049 -3.11227195 0 0 0 Z " fill="#F6F5F7" transform="translate(217,451)"/>
<path d="M0 0 C0.33 0 0.66 0 1 0 C0.67 2.31 0.34 4.62 0 7 C-0.99 7 -1.98 7 -3 7 C-2.67 5.68 -2.34 4.36 -2 3 C-1.34 3 -0.68 3 0 3 C0 2.01 0 1.02 0 0 Z " fill="#191919" transform="translate(364,542)"/>
<path d="M0 0 C1.10844919 3.32534757 0.84454356 5.62182575 0 9 C-2.1519437 5.77208445 -2.20086443 4.71599191 -2 1 C-1.34 0.67 -0.68 0.34 0 0 Z " fill="#1E1E1F" transform="translate(311,546)"/>
<path d="M0 0 C1.61949011 2.57213134 2.04408751 3.67669159 1.625 6.75 C1.41875 7.4925 1.2125 8.235 1 9 C0.34 8.67 -0.32 8.34 -1 8 C-0.67 5.36 -0.34 2.72 0 0 Z " fill="#222222" transform="translate(947,517)"/>
<path d="M0 0 C0.33 0 0.66 0 1 0 C1.33 2.97 1.66 5.94 2 9 C1.01 9 0.02 9 -1 9 C-0.67 6.03 -0.34 3.06 0 0 Z " fill="#D6D7D7" transform="translate(318,516)"/>
<path d="M0 0 C0.66 0.33 1.32 0.66 2 1 C2 3.31 2 5.62 2 8 C1.01 8 0.02 8 -1 8 C-0.67 5.36 -0.34 2.72 0 0 Z " fill="#202120" transform="translate(561,480)"/>
<path d="M0 0 C0.66 0.33 1.32 0.66 2 1 C2 3.31 2 5.62 2 8 C1.01 8 0.02 8 -1 8 C-0.67 5.36 -0.34 2.72 0 0 Z " fill="#1D1D1D" transform="translate(714,431)"/>
<path d="M0 0 C1.32 0.33 2.64 0.66 4 1 C2.35 2.98 0.7 4.96 -1 7 C-1 4.37886292 -0.68707555 2.49064888 0 0 Z " fill="#1179CF" transform="translate(1200,423)"/>
</svg>
